<svg width="46" height="46" viewBox="0 0 46 46" fill="none" xmlns="http://www.w3.org/2000/svg">
<circle cx="23" cy="23" r="23" fill="#EAF0FB"/>
<path d="M18.7504 31.6216H15.8252C14.015 31.6216 12.279 30.9718 10.999 29.8152C9.71897 28.6585 8.99988 27.0898 8.99988 25.4541C8.99988 23.8184 9.71897 22.2497 10.999 21.093C12.279 19.9364 14.015 19.2866 15.8252 19.2866C16.3963 19.2864 16.9652 19.3493 17.5194 19.4738" stroke="#013EB7" stroke-width="1.5" stroke-linecap="round" stroke-linejoin="round"/>
<path d="M16.8002 22.8107C16.8002 21.4146 17.1673 20.0385 17.8713 18.7958C18.5753 17.5531 19.5961 16.4794 20.8494 15.6631C22.1028 14.8468 23.5529 14.3113 25.0802 14.1008C26.6075 13.8902 28.1683 14.0107 29.634 14.4521C31.0997 14.8936 32.4283 15.6435 33.5104 16.64C34.5925 17.6365 35.397 18.8511 35.8576 20.1836C36.3183 21.5162 36.4219 22.9286 36.16 24.3045C35.898 25.6803 35.278 26.9802 34.351 28.0971" stroke="#013EB7" stroke-width="1.5" stroke-linecap="round" stroke-linejoin="round"/>
<path d="M21.444 26.5441L25.5757 22.8105L29.7075 26.5441" stroke="#013EB7" stroke-width="1.5" stroke-linecap="round" stroke-linejoin="round"/>
<path d="M25.5754 31.6212V22.8105" stroke="#013EB7" stroke-width="1.5" stroke-linecap="round" stroke-linejoin="round"/>
</svg>
