<svg width="74" height="74" viewBox="0 0 74 74" fill="none" xmlns="http://www.w3.org/2000/svg">
<circle cx="36.7507" cy="36.7507" r="28.6731" transform="rotate(20 36.7507 36.7507)" fill="#013EB7"/>
<mask id="mask0_67_536" style="mask-type:alpha" maskUnits="userSpaceOnUse" x="33" y="20" width="23" height="16">
<path d="M36.7651 20.8904L55.6222 27.7538L52.6271 35.9828L33.77 29.1194L36.7651 20.8904Z" fill="white"/>
</mask>
<g mask="url(#mask0_67_536)">
<path fill-rule="evenodd" clip-rule="evenodd" d="M52.6326 35.9674L51.8502 35.6826C46.1545 33.6096 40.4631 31.5238 34.7573 29.4788C34.009 29.2106 33.8206 28.9206 34.1225 28.1543C34.8799 26.2317 35.5505 24.2751 36.2612 22.3342C36.66 21.2446 37.1019 21.0233 38.1671 21.4079C40.9258 22.404 43.6843 23.4002 46.4305 24.4298C46.7647 24.5553 47.1414 24.8239 47.2963 25.1287C49.0568 28.5886 50.7789 32.0682 52.5082 35.544C52.5532 35.635 52.5676 35.7415 52.6326 35.9674Z" fill="white"/>
</g>
<path fill-rule="evenodd" clip-rule="evenodd" d="M38.2699 53.9825C38.3736 53.647 38.4351 53.4148 38.5168 53.1903C40.5703 47.5424 42.6395 41.9004 44.6656 36.243C44.9391 35.4784 45.2471 35.3461 45.9731 35.6316C47.8212 36.3581 49.7014 37.0036 51.5666 37.6867C52.6463 38.0818 52.8135 38.418 52.4286 39.4834C51.4219 42.2703 50.419 45.059 49.3722 47.8307C49.2305 48.2063 48.9092 48.6161 48.5638 48.796C45.324 50.4836 42.0611 52.1254 38.8034 53.7772C38.667 53.8466 38.5169 53.8885 38.2699 53.9825Z" fill="white"/>
<path fill-rule="evenodd" clip-rule="evenodd" d="M19.9945 39.1938L20.857 39.5077C26.4517 41.5441 32.0472 43.5797 37.6414 45.6174C38.6716 45.9926 38.6715 45.9967 38.2998 47.0195C37.6298 48.8634 36.9628 50.7083 36.285 52.5492C35.9148 53.5547 35.4581 53.7646 34.4373 53.3952C31.638 52.3824 28.838 51.3703 26.0493 50.3289C25.7412 50.214 25.3936 49.9654 25.2495 49.6876C23.5238 46.3615 21.8326 43.0188 20.1357 39.6788C20.0887 39.5868 20.0758 39.4787 19.9945 39.1938Z" fill="white"/>
<path fill-rule="evenodd" clip-rule="evenodd" d="M34.7032 20.9513C34.5925 21.3123 34.5254 21.5705 34.4348 21.8201C32.398 27.4228 30.344 33.0194 28.3357 38.6322C28.0516 39.4265 27.7427 39.5975 26.9684 39.2904C25.0963 38.547 23.1862 37.9 21.296 37.2016C20.3511 36.8525 20.1823 36.4649 20.539 35.4787C21.5532 32.6757 22.5652 29.872 23.6099 27.0805C23.734 26.7484 23.9965 26.3712 24.2939 26.2157C27.5924 24.4934 30.9099 22.8103 34.2237 21.1194C34.3374 21.0614 34.4653 21.0335 34.7032 20.9513Z" fill="white"/>
</svg>
