<?xml version="1.0" encoding="utf-8"?>
<!-- Generator: Adobe Illustrator 26.0.1, SVG Export Plug-In . SVG Version: 6.00 Build 0)  -->
<svg version="1.1" id="Layer_1" xmlns="http://www.w3.org/2000/svg" xmlns:xlink="http://www.w3.org/1999/xlink" x="0px" y="0px"
	 viewBox="0 0 294.4 248.3" style="enable-background:new 0 0 294.4 248.3;" xml:space="preserve">
<style type="text/css">
	.st0{fill:#FFFFFF;}
	.st1{fill:url(#SVGID_1_);}
	.st2{fill:url(#SVGID_00000013188015901787293730000000729294073693058453_);}
	.st3{fill:url(#SVGID_00000157999321371020612900000013545406139498059173_);}
	.st4{fill:url(#SVGID_00000083788693316019817350000007079800604286482362_);}
	.st5{fill:url(#SVGID_00000108999174588463823620000011104198703727778458_);}
	.st6{fill:url(#SVGID_00000152960858775134114230000003054740323089234829_);}
	.st7{fill:url(#SVGID_00000132084459919607065350000011866000860287405996_);}
	.st8{fill:url(#SVGID_00000163784888204700527630000008942836637803760535_);}
	.st9{fill:url(#SVGID_00000171706228449095454530000012483140091809617045_);}
	.st10{fill:url(#SVGID_00000054945346134063286450000011672886231180264364_);}
	.st11{fill:url(#SVGID_00000137129382100852477520000009590446054650249139_);}
	.st12{fill:url(#SVGID_00000017490669680404117010000002919454518064769440_);}
	.st13{fill:url(#SVGID_00000065037191463750812900000015730703165692416954_);}
	.st14{fill:url(#SVGID_00000183228916550336873070000003825543224791848597_);}
	.st15{fill:url(#SVGID_00000158026629314238915150000014965826768325008574_);}
	.st16{fill:url(#SVGID_00000041282378304034892840000017942807932803503498_);}
	.st17{fill:url(#SVGID_00000105421349178014383180000014057076990150605205_);}
	.st18{fill:url(#SVGID_00000064312344430938532440000010140937148639093386_);}
	.st19{fill:url(#SVGID_00000152945375763646841360000005499971631170112411_);}
	.st20{fill:url(#SVGID_00000100375526668813090670000009104853564521233027_);}
</style>
<g>
	<path class="st0" d="M69,88.9c0,0-0.8-7.5,6.8-9.1c9-1.9,148.9,0,148.9,0s6.8,1.8,6.8,9.1s-78.9,129.1-78.9,129.1l-2.7,0L69,88.9z"
		/>
	<g>
		<linearGradient id="SVGID_1_" gradientUnits="userSpaceOnUse" x1="150.2446" y1="125.1199" x2="150.2446" y2="36.5419">
			<stop  offset="0" style="stop-color:#4265FF"/>
			<stop  offset="1" style="stop-color:#3F6EFD"/>
		</linearGradient>
		<path class="st1" d="M75.8,79.9l74.5,43l74.5-43l-63.2-36.5c-7-4-15.5-4-22.5,0L75.8,79.9z"/>
	</g>
	<g>
		
			<linearGradient id="SVGID_00000068672135339294493960000008696536110815643309_" gradientUnits="userSpaceOnUse" x1="150.4079" y1="217.8968" x2="228.1351" y2="90.8191">
			<stop  offset="0" style="stop-color:#59EEFD"/>
			<stop  offset="1" style="stop-color:#416EFE"/>
		</linearGradient>
		<path style="fill:url(#SVGID_00000068672135339294493960000008696536110815643309_);" d="M231.4,88.9l-78.8,43l-0.2-0.1v0v86.2
			l0.2,0.1l67-36.5c7.4-4,11.9-11.4,11.9-19.5V88.9L231.4,88.9z"/>
	</g>
	<polygon class="st0" points="211.2,159.1 202.2,164.1 202.2,108.3 211.2,103.3 	"/>
	<g>
		
			<linearGradient id="SVGID_00000121999038284522834520000005020552349599079056_" gradientUnits="userSpaceOnUse" x1="146.734" y1="214.7526" x2="76.4032" y2="91.4669">
			<stop  offset="0" style="stop-color:#59EEFD"/>
			<stop  offset="1" style="stop-color:#416EFE"/>
		</linearGradient>
		<path style="fill:url(#SVGID_00000121999038284522834520000005020552349599079056_);" d="M69.1,88.9l80.8,43l0.2-0.1v0v86.2
			l-0.2,0.1l-68.7-36.5c-7.6-4-12.2-11.4-12.2-19.5V88.9L69.1,88.9z"/>
	</g>
	<g>
		
			<radialGradient id="SVGID_00000150087643293648568970000000098990567985167755_" cx="150.751" cy="129.7331" r="10.3149" gradientUnits="userSpaceOnUse">
			<stop  offset="0.3043" style="stop-color:#406AFE"/>
			<stop  offset="1" style="stop-color:#4688FE"/>
		</radialGradient>
		<circle style="fill:url(#SVGID_00000150087643293648568970000000098990567985167755_);" cx="150.8" cy="129.7" r="10.3"/>
		<g>
			<path class="st0" d="M150.8,120.9c4.9,0,8.8,4,8.8,8.8c0,4.9-4,8.8-8.8,8.8c-4.9,0-8.8-4-8.8-8.8
				C141.9,124.9,145.9,120.9,150.8,120.9 M150.8,117.9c-6.5,0-11.8,5.3-11.8,11.8s5.3,11.8,11.8,11.8c6.5,0,11.8-5.3,11.8-11.8
				S157.3,117.9,150.8,117.9L150.8,117.9z"/>
		</g>
	</g>
	<g>
		
			<radialGradient id="SVGID_00000079444499701297657370000007105596776487208067_" cx="216.4627" cy="109.8137" r="23.2715" gradientUnits="userSpaceOnUse">
			<stop  offset="0.3043" style="stop-color:#406AFE"/>
			<stop  offset="1" style="stop-color:#4688FE"/>
		</radialGradient>
		<circle style="fill:url(#SVGID_00000079444499701297657370000007105596776487208067_);" cx="207" cy="97.1" r="10.3"/>
		<g>
			<path class="st0" d="M207,88.3c4.9,0,8.8,4,8.8,8.8c0,4.9-4,8.8-8.8,8.8s-8.8-4-8.8-8.8C198.2,92.2,202.2,88.3,207,88.3
				 M207,85.3c-6.5,0-11.8,5.3-11.8,11.8s5.3,11.8,11.8,11.8s11.8-5.3,11.8-11.8S213.5,85.3,207,85.3L207,85.3z"/>
		</g>
	</g>
	<g>
		
			<radialGradient id="SVGID_00000057843842828648211910000009046376114235576994_" cx="216.4627" cy="178.4524" r="23.2715" gradientUnits="userSpaceOnUse">
			<stop  offset="0.3043" style="stop-color:#406AFE"/>
			<stop  offset="1" style="stop-color:#4688FE"/>
		</radialGradient>
		<circle style="fill:url(#SVGID_00000057843842828648211910000009046376114235576994_);" cx="207" cy="165.7" r="10.3"/>
		<g>
			<path class="st0" d="M207,156.9c4.9,0,8.8,4,8.8,8.8s-4,8.8-8.8,8.8s-8.8-4-8.8-8.8S202.2,156.9,207,156.9 M207,153.9
				c-6.5,0-11.8,5.3-11.8,11.8c0,6.5,5.3,11.8,11.8,11.8s11.8-5.3,11.8-11.8C218.8,159.2,213.5,153.9,207,153.9L207,153.9z"/>
		</g>
	</g>
	<polygon class="st0" points="90.2,158.5 99.5,163.6 99.5,106.2 90.2,101 	"/>
	<polygon class="st0" points="115,143.9 122.1,147.2 122.1,110 115,106.7 	"/>
	<g>
		
			<radialGradient id="SVGID_00000111183449161624845570000013618095452706914444_" cx="4098.5947" cy="178.5356" r="24.079" gradientTransform="matrix(-1 0 0 1 4183.3057 0)" gradientUnits="userSpaceOnUse">
			<stop  offset="0.3043" style="stop-color:#406AFE"/>
			<stop  offset="1" style="stop-color:#4688FE"/>
		</radialGradient>
		<path style="fill:url(#SVGID_00000111183449161624845570000013618095452706914444_);" d="M94.5,176.1c-5.9,0-10.7-4.8-10.7-10.7
			s4.8-10.7,10.7-10.7s10.7,4.8,10.7,10.7S100.4,176.1,94.5,176.1z"/>
		<g>
			<path class="st0" d="M94.5,156.2c5.1,0,9.2,4.1,9.2,9.2c0,5.1-4.1,9.2-9.2,9.2s-9.2-4.1-9.2-9.2
				C85.3,160.3,89.4,156.2,94.5,156.2 M94.5,153.2c-6.7,0-12.2,5.4-12.2,12.2s5.4,12.2,12.2,12.2c6.7,0,12.2-5.5,12.2-12.2
				S101.2,153.2,94.5,153.2L94.5,153.2z"/>
		</g>
	</g>
	<g>
		
			<radialGradient id="SVGID_00000070093032095462803360000012013408031082317223_" cx="4071.5439" cy="158.539" r="15.6555" gradientTransform="matrix(-1 0 0 1 4183.3057 0)" gradientUnits="userSpaceOnUse">
			<stop  offset="0.3043" style="stop-color:#406AFE"/>
			<stop  offset="1" style="stop-color:#4688FE"/>
		</radialGradient>
		<path style="fill:url(#SVGID_00000070093032095462803360000012013408031082317223_);" d="M118.1,156.9c-3.8,0-6.9-3.1-6.9-6.9
			c0-3.8,3.1-6.9,6.9-6.9c3.8,0,6.9,3.1,6.9,6.9C125.1,153.8,121.9,156.9,118.1,156.9z"/>
		<g>
			<path class="st0" d="M118.1,144.5c3,0,5.4,2.4,5.4,5.4s-2.4,5.4-5.4,5.4s-5.4-2.4-5.4-5.4S115.1,144.5,118.1,144.5 M118.1,141.5
				c-4.7,0-8.4,3.8-8.4,8.4s3.8,8.4,8.4,8.4c4.7,0,8.4-3.8,8.4-8.4S122.8,141.5,118.1,141.5L118.1,141.5z"/>
		</g>
	</g>
	<polygon class="st0" points="186.5,143.9 179.4,147.2 179.4,110 186.5,106.7 	"/>
	<g>
		
			<radialGradient id="SVGID_00000031913423859861185420000006788481233756988309_" cx="347.7402" cy="158.539" r="15.6555" gradientTransform="matrix(1 0 0 1 -158 0)" gradientUnits="userSpaceOnUse">
			<stop  offset="0.3043" style="stop-color:#406AFE"/>
			<stop  offset="1" style="stop-color:#4688FE"/>
		</radialGradient>
		<path style="fill:url(#SVGID_00000031913423859861185420000006788481233756988309_);" d="M183.4,156.9c-3.8,0-6.9-3.1-6.9-6.9
			c0-3.8,3.1-6.9,6.9-6.9c3.8,0,6.9,3.1,6.9,6.9C190.3,153.8,187.2,156.9,183.4,156.9z"/>
		<g>
			<path class="st0" d="M183.4,144.5c3,0,5.4,2.4,5.4,5.4s-2.4,5.4-5.4,5.4s-5.4-2.4-5.4-5.4S180.4,144.5,183.4,144.5 M183.4,141.5
				c-4.7,0-8.4,3.8-8.4,8.4s3.8,8.4,8.4,8.4s8.4-3.8,8.4-8.4S188,141.5,183.4,141.5L183.4,141.5z"/>
		</g>
	</g>
	<g>
		
			<radialGradient id="SVGID_00000098936666541903479730000015499128842629051528_" cx="107.3035" cy="18.4222" r="23.0062" gradientTransform="matrix(0.9989 -4.669359e-02 4.669359e-02 0.9989 -23.1373 93.7755)" gradientUnits="userSpaceOnUse">
			<stop  offset="0.3043" style="stop-color:#406AFE"/>
			<stop  offset="1" style="stop-color:#4688FE"/>
		</radialGradient>
		<path style="fill:url(#SVGID_00000098936666541903479730000015499128842629051528_);" d="M94.5,107.4c-5.5,0-10-4.3-10.3-9.8
			c-0.3-5.7,4.1-10.5,9.8-10.8c0.2,0,0.3,0,0.5,0c5.5,0,10,4.3,10.3,9.8c0.3,5.7-4.1,10.5-9.8,10.8
			C94.8,107.4,94.6,107.4,94.5,107.4z"/>
		<path class="st0" d="M94.5,88.3c4.7,0,8.6,3.7,8.8,8.4c0.1,2.4-0.7,4.6-2.3,6.3c-1.6,1.7-3.8,2.8-6.1,2.9c-0.1,0-0.3,0-0.4,0
			c-4.7,0-8.6-3.7-8.8-8.4c-0.1-2.4,0.7-4.6,2.3-6.3c1.6-1.7,3.8-2.8,6.1-2.9C94.2,88.3,94.4,88.3,94.5,88.3 M94.5,85.3
			c-0.2,0-0.4,0-0.6,0c-6.5,0.3-11.6,5.8-11.3,12.4c0.3,6.3,5.5,11.3,11.8,11.3c0.2,0,0.4,0,0.6,0c6.5-0.3,11.6-5.8,11.3-12.4
			C106,90.2,100.8,85.3,94.5,85.3L94.5,85.3z"/>
	</g>
</g>
</svg>
