<svg width="32" height="40" viewBox="0 0 32 40" fill="none" xmlns="http://www.w3.org/2000/svg">
<g clip-path="url(#clip0_2296_3597)">
<path d="M24.115 37.0192C24.0432 37.4286 23.7859 37.5224 23.402 37.5224C16.6687 37.5139 9.93962 37.5181 3.20633 37.5139C2.58616 37.5139 2.4849 37.4115 2.48069 36.7889C2.48069 36.3411 2.45959 35.8934 2.4849 35.4499C2.506 35.113 2.43428 34.9637 2.05458 34.9936C1.54832 35.032 1.03784 34.9936 0.531576 35.0064C0.177192 35.0149 0.0210943 34.8358 0.00843771 34.4947C0.00421885 34.371 0.00843771 34.2516 0.00843771 34.1279C0.00843771 25.194 0.00843771 16.2516 0 7.30917C0 6.85714 0.122347 6.52452 0.447198 6.20469C2.39209 4.26866 4.32011 2.3113 6.23968 0.353945C6.4886 0.102345 6.75016 0 7.09189 0C13.2092 0.00426439 19.3223 0 25.4397 0.00426439C25.9755 0.00426439 26.1274 0.162047 26.1316 0.695096C26.1316 1.21109 26.14 1.72281 26.1316 2.23881C26.1274 2.45203 26.2033 2.52026 26.41 2.51599C26.9163 2.50746 27.4268 2.51173 27.9372 2.51599C28.4899 2.51599 28.6207 2.65245 28.6207 3.21109C28.6207 9.02772 28.6207 14.8443 28.6207 20.661C28.6207 23.8678 28.6207 27.0746 28.6249 30.2772C28.6249 30.6567 28.549 30.9382 28.144 31.032C27.6419 30.951 27.6757 30.5672 27.6757 30.1962C27.6757 21.5181 27.6757 12.8358 27.6757 4.15778C27.6757 4.02132 27.6715 3.88913 27.6757 3.75267C27.6799 3.58635 27.6124 3.50959 27.4394 3.50959C27.0766 3.51812 26.718 3.51812 26.3552 3.50959C26.1695 3.50959 26.1274 3.60341 26.1358 3.76119C26.14 3.8806 26.1358 4.00426 26.1358 4.12793C26.1358 12.0768 26.1358 20.0256 26.14 27.9787C26.14 28.3667 26.0894 28.6823 25.6464 28.7676C25.1317 28.6823 25.1992 28.2772 25.1992 27.9232C25.1992 19.0917 25.1992 10.2601 25.1992 1.42857C25.1992 1.14712 25.2372 0.925373 24.8069 0.929637C19.1072 0.946695 13.4075 0.942431 7.70784 0.929637C7.38299 0.929637 7.30705 1.03198 7.31127 1.34328C7.32393 3.06183 7.31971 4.78038 7.31549 6.49467C7.31549 7.30064 7.23111 7.38593 6.45063 7.38593C4.75043 7.38593 3.05023 7.39446 1.35425 7.3774C1.03362 7.3774 0.923929 7.44136 0.923929 7.79531C0.932367 16.4094 0.932367 25.0277 0.923929 33.6418C0.923929 33.9829 1.01674 34.0725 1.35003 34.0682C3.98682 34.0554 6.6236 34.0597 9.25616 34.0597C13.1375 34.0597 17.0189 34.0597 20.896 34.0597C21.2504 34.0597 21.533 34.1237 21.6427 34.5117C21.5879 34.9595 21.2841 35.0107 20.9129 35.0107C15.4157 35.0064 9.91852 35.0107 4.41714 35.0107C3.7365 35.0107 3.39758 35.3532 3.4004 36.0384C3.4004 36.3909 3.57056 36.5686 3.91088 36.5714C8.19301 36.5714 12.4709 36.5714 16.7531 36.5714C18.9722 36.5714 21.1955 36.5714 23.4146 36.5714C23.7479 36.5714 24.0348 36.6269 24.1107 37.0235L24.115 37.0192ZM6.37469 1.77399C4.83481 3.33902 3.30758 4.88699 1.79301 6.42217C1.77614 6.42217 1.82676 6.43923 1.87317 6.43923C3.26539 6.43923 4.6534 6.43923 6.04562 6.44776C6.32406 6.44776 6.37891 6.31983 6.37469 6.07676C6.36625 4.94243 6.37469 3.8081 6.37469 2.66951C6.37469 2.36247 6.37469 2.0597 6.37469 1.77825V1.77399Z" fill="#0575E6"/>
<path d="M28.0554 32.3962C28.5237 32.9847 29.0975 33.4751 29.6079 34.021C30.2281 34.6862 30.9284 35.2789 31.4938 35.9996C32.4979 37.2917 31.9494 39.2107 30.439 39.8035C29.3675 40.2256 28.5026 39.9229 27.7305 39.151C27.0851 38.5028 26.4438 37.8546 25.8025 37.2022C25.7182 37.1169 25.6422 37.0188 25.5072 37.0146C25.4988 36.9762 25.5072 36.9207 25.4819 36.8994C24.693 36.0934 23.9378 35.2491 23.0814 34.5114C22.7396 34.1532 22.3979 33.7949 22.052 33.4367C21.6427 33.0103 21.3348 32.49 21.339 31.9229C21.339 31.4026 21.1027 31.1126 20.7905 30.7885C20.5796 30.5668 20.3982 30.6052 20.1915 30.7374C18.9764 31.5433 17.6559 32.038 16.2131 32.2683C15.2174 32.4303 14.2302 32.4218 13.2641 32.2171C11.0872 31.7608 9.23509 30.7203 7.77115 28.989C6.42534 27.3984 5.68704 25.5561 5.50141 23.4964C5.3875 22.2384 5.55625 20.9932 5.95704 19.7864C6.56034 17.9655 7.60661 16.4602 9.08743 15.2491C10.4628 14.1233 12.0322 13.4282 13.7788 13.2662C15.8629 13.0785 17.8964 13.3429 19.7443 14.4645C21.2715 15.3941 22.4907 16.6137 23.3261 18.2129C24.2458 19.9698 24.5917 21.8291 24.3766 23.8163C24.212 25.3344 23.7353 26.7203 22.9126 27.9826C22.7185 28.2811 22.6637 28.4644 22.9717 28.6862C23.1236 28.7928 23.2459 28.9421 23.3725 29.0828C23.4695 29.1894 23.5708 29.2534 23.7184 29.2363C24.4905 29.1425 25.0938 29.5007 25.6507 29.9783C26.4354 30.8013 27.2074 31.6372 28.0596 32.392L28.0554 32.3962ZM6.44643 22.7502C6.40002 27.6329 10.3025 31.215 14.534 31.4239C19.2675 31.6585 23.8914 27.8504 23.4779 22.0124C23.1868 17.9186 19.9004 14.3152 15.247 14.1446C10.2096 13.9613 6.34518 18.2001 6.45065 22.7459L6.44643 22.7502ZM31.0212 37.4581C31.0845 37.0785 30.9453 36.7331 30.6669 36.4517C28.7557 34.5071 26.8404 32.5625 24.925 30.6222C24.6002 30.2939 24.1951 30.0465 23.7395 30.1574C23.2712 30.2683 23.0096 30.0551 22.7439 29.7566C22.6342 29.6372 22.5076 29.5348 22.4064 29.4111C22.2165 29.1766 22.0393 29.1169 21.8452 29.4069C21.8031 29.4751 21.7356 29.5263 21.6807 29.5817C21.2799 29.9826 21.263 30.0039 21.6976 30.392C22.0984 30.7544 22.3557 31.1297 22.2882 31.7139C22.2418 32.1318 22.457 32.4943 22.7523 32.7971C24.6508 34.7161 26.5493 36.6393 28.452 38.554C28.9245 39.0274 29.4772 39.2278 30.1269 38.9207C30.7302 38.635 31.0761 38.1873 31.0212 37.4623V37.4581Z" fill="#0575E6"/>
<path d="M16.2637 6.2559C14.3905 6.2559 12.5215 6.2559 10.6484 6.2559C10.5049 6.2559 10.353 6.2559 10.2138 6.21326C9.97335 6.14076 9.80038 5.94886 9.84679 5.71006C9.88898 5.50537 10.0366 5.29641 10.3151 5.30494C10.3826 5.30494 10.4501 5.30494 10.5176 5.30494C14.3146 5.30494 18.1115 5.30494 21.9085 5.30494C22.0519 5.30494 22.1911 5.30494 22.3346 5.37317C22.5498 5.47552 22.613 5.63756 22.5962 5.85931C22.5793 6.08959 22.4316 6.20046 22.2376 6.23458C22.0266 6.26869 21.8115 6.26016 21.5963 6.26016C19.8202 6.26016 18.0398 6.26016 16.2637 6.26016V6.2559Z" fill="#0575E6"/>
<path d="M16.1709 3.75246C14.285 3.75246 12.3992 3.75246 10.5092 3.75246C10.1759 3.75246 9.92274 3.67996 9.89743 3.2919C9.87633 2.95502 10.0788 2.79297 10.5134 2.79297C14.3272 2.79297 18.1411 2.79297 21.9549 2.79297C22.2165 2.79297 22.478 2.81856 22.5793 3.11706C22.7016 3.47954 22.4738 3.74393 22.0266 3.74819C21.2757 3.76099 20.5289 3.74819 19.778 3.74819C18.5756 3.74819 17.369 3.74819 16.1666 3.74819L16.1709 3.75246Z" fill="#0575E6"/>
<path d="M19.0144 7.82031C20.0058 7.82031 20.993 7.82031 21.9844 7.82031C22.208 7.82031 22.419 7.86722 22.5498 8.05485C22.7481 8.34483 22.5456 8.72863 22.1701 8.76701C21.9296 8.79259 21.6891 8.77554 21.4486 8.77554C19.7231 8.77554 17.9976 8.77554 16.2721 8.77554C16.1666 8.77554 16.057 8.78406 15.9515 8.77127C15.6688 8.73289 15.4537 8.55379 15.4705 8.28087C15.4874 8.00795 15.6815 7.82031 16.0105 7.82031C17.0146 7.82884 18.0187 7.82031 19.0228 7.82031H19.0144Z" fill="#0575E6"/>
<path d="M19.0144 10.3359C20.0058 10.3359 20.993 10.3359 21.9844 10.3359C22.246 10.3359 22.5033 10.3786 22.5877 10.6814C22.6848 11.031 22.4949 11.2613 22.0941 11.2869C21.803 11.304 21.5077 11.2912 21.2124 11.2912C19.5797 11.2912 17.947 11.2912 16.3185 11.2912C16.213 11.2912 16.1033 11.2912 15.9979 11.2912C15.6899 11.2784 15.4663 11.0822 15.4705 10.805C15.4705 10.5278 15.6941 10.3359 16.0063 10.3359C17.0104 10.3359 18.0145 10.3359 19.0144 10.3359Z" fill="#0575E6"/>
<path d="M14.9221 15.8498C18.8836 15.6921 21.744 18.9629 21.8706 22.3786C22.0351 26.8946 18.6769 29.7901 14.9179 29.7859C11.1969 29.7859 7.96944 26.6345 8.06226 22.5322C8.1382 19.1164 11.1167 15.6793 14.9221 15.8498ZM20.9129 22.8221C21.0648 19.4234 18.2424 16.7582 15.0107 16.7283C11.6483 16.6985 8.99462 19.5897 9.00306 22.7667C9.0115 26.046 11.7242 28.7838 14.8335 28.8307C18.1622 28.8818 21.0141 26.1526 20.9129 22.8179V22.8221Z" fill="#0575E6"/>
<path d="M17.774 20.3597C17.8247 20.5687 17.7023 20.7052 17.5631 20.8416C17.002 21.4045 16.4535 21.9759 15.8882 22.5303C15.7068 22.7094 15.6857 22.816 15.8798 23.0079C16.4704 23.5794 17.0315 24.1764 17.6179 24.7478C17.8247 24.9525 17.8373 25.187 17.7403 25.413C17.6137 25.7115 17.2467 25.7243 16.9893 25.4642C16.424 24.8928 15.846 24.3256 15.2934 23.7371C15.074 23.5026 14.9432 23.4642 14.7027 23.7243C14.1585 24.3171 13.5805 24.8843 13.0025 25.4472C12.8464 25.6007 12.6692 25.7627 12.4077 25.6092C12.1925 25.4813 12.125 25.3064 12.1587 25.0676C12.1798 24.9184 12.298 24.8416 12.3908 24.7478C12.9645 24.1636 13.5341 23.5751 14.1247 23.0037C14.3061 22.8288 14.2935 22.7265 14.1247 22.5602C13.5425 22.0015 12.9814 21.4258 12.4077 20.8587C12.2769 20.7307 12.1798 20.5943 12.163 20.4109C12.1334 20.0442 12.4583 19.8096 12.7958 19.9546C13.011 20.0484 13.1502 20.2361 13.3105 20.3981C13.8041 20.8928 14.3019 21.3832 14.7829 21.8907C14.9516 22.0655 15.0487 22.0783 15.2259 21.8949C15.8081 21.2808 16.4156 20.6881 17.0062 20.0826C17.1623 19.9205 17.3437 19.8651 17.5547 19.9376C17.7445 20.0058 17.812 20.1593 17.7825 20.364L17.774 20.3597Z" fill="#0575E6"/>
</g>
<defs>
<clipPath id="clip0_2296_3597">
<rect width="32" height="40" fill="white"/>
</clipPath>
</defs>
</svg>
