<svg width="363" height="213" viewBox="0 0 363 213" fill="none" xmlns="http://www.w3.org/2000/svg">
<path d="M155.931 197.487C148.943 188.831 144.976 175.881 144.031 158.646C143.091 141.508 145.62 128.26 151.621 118.905C157.622 109.549 166.771 104.541 179.073 103.879C191.373 103.218 201.019 107.219 208.006 115.875C214.994 124.535 218.959 137.432 219.899 154.571C220.839 171.71 218.31 184.979 212.312 194.384C206.315 203.789 197.164 208.821 184.866 209.483C172.564 210.143 162.922 206.146 155.933 197.487H155.931Z" fill="white"/>
<path d="M182.317 210.439C170.98 210.439 161.878 206.275 155.231 198.04C148.158 189.278 144.088 176.039 143.136 158.693C142.191 141.447 144.79 127.899 150.864 118.429C157.003 108.86 166.477 103.667 179.024 102.993C191.57 102.318 201.558 106.466 208.707 115.321C215.783 124.087 219.849 137.276 220.796 154.522C221.741 171.767 219.144 185.337 213.073 194.858C206.939 204.476 197.466 209.694 184.916 210.368C184.039 210.416 183.173 210.439 182.321 210.439H182.317ZM181.6 104.697C180.786 104.697 179.959 104.72 179.12 104.764C167.185 105.405 158.187 110.323 152.378 119.378C146.508 128.531 144 141.727 144.926 158.595C145.857 175.563 149.795 188.461 156.63 196.931C162.919 204.722 171.558 208.663 182.334 208.663C183.148 208.663 183.975 208.639 184.814 208.595C196.75 207.954 205.746 203.013 211.55 193.91C217.419 184.707 219.926 171.488 219 154.618C218.075 137.75 214.14 124.9 207.303 116.428C201.013 108.637 192.374 104.697 181.6 104.697Z" fill="#0575E6"/>
<path d="M198.167 184.813C200.882 178.566 201.879 168.818 201.153 155.574C200.421 142.234 198.364 132.652 194.987 126.827C191.608 121.002 186.572 118.27 179.882 118.629C173.19 118.989 168.484 122.269 165.767 128.469C163.046 134.672 162.05 144.393 162.777 157.635C163.503 170.879 165.557 180.461 168.943 186.382C172.326 192.305 177.364 195.086 184.055 194.726C190.745 194.367 195.45 191.063 198.167 184.812V184.813Z" fill="#EFF1F7"/>
<path d="M182.925 195.645C176.47 195.645 171.508 192.681 168.161 186.819C164.725 180.807 162.612 171.005 161.88 157.683C161.15 144.362 162.18 134.414 164.942 128.113C167.793 121.609 172.803 118.117 179.832 117.739C186.859 117.363 192.218 120.27 195.764 126.381C199.198 132.302 201.311 142.108 202.048 155.523C202.778 168.839 201.75 178.812 198.99 185.161C196.14 191.717 191.133 195.233 184.104 195.61C183.706 195.631 183.313 195.642 182.925 195.642V195.645ZM181.049 119.484C180.682 119.484 180.309 119.495 179.928 119.514C173.545 119.857 169.182 122.901 166.586 128.822C163.935 134.867 162.954 144.543 163.67 157.587C164.386 170.634 166.421 180.175 169.721 185.946C172.952 191.602 177.622 194.181 184.005 193.84C190.385 193.498 194.748 190.429 197.342 184.462C199.991 178.367 200.972 168.664 200.256 155.622C199.535 142.486 197.501 132.946 194.209 127.267C191.176 122.038 186.862 119.482 181.049 119.482V119.484Z" fill="#0575E6"/>
<path d="M240.749 157.137H118.439V158.75H240.749V157.137Z" fill="#0575E6"/>
<path d="M322.807 157.551H307.883C307.808 157.551 307.748 157.61 307.748 157.684V158.628C307.748 158.702 307.808 158.761 307.883 158.761H322.807C322.881 158.761 322.941 158.702 322.941 158.628V157.684C322.941 157.61 322.881 157.551 322.807 157.551Z" fill="#E9ECEF"/>
<path d="M51.1779 157.551H36.254C36.1797 157.551 36.1194 157.61 36.1194 157.684V158.628C36.1194 158.702 36.1797 158.761 36.254 158.761H51.1779C51.2522 158.761 51.3125 158.702 51.3125 158.628V157.684C51.3125 157.61 51.2522 157.551 51.1779 157.551Z" fill="#E9ECEF"/>
<path d="M309.741 182.629H294.727C294.677 182.629 294.637 182.669 294.637 182.718V183.348C294.637 183.397 294.677 183.436 294.727 183.436H309.741C309.79 183.436 309.83 183.397 309.83 183.348V182.718C309.83 182.669 309.79 182.629 309.741 182.629Z" fill="#C4CEFE"/>
<path d="M58.4884 54.0103C61.3383 54.0103 63.8152 51.9621 64.2008 49.1685C64.269 48.6679 64.3048 48.155 64.3048 47.6368C64.3048 41.4159 59.2094 36.3735 52.9231 36.3735C52.6648 36.3735 52.4101 36.3859 52.1554 36.4019C51.6353 30.268 46.443 25.4492 40.1101 25.4492C33.4328 25.4492 28.0181 30.8057 28.0181 37.4153C28.0181 37.7082 28.0324 37.9975 28.054 38.2868C26.1582 37.2396 23.9504 36.6788 21.6008 36.7853C15.5279 37.0604 10.5365 41.8685 10.1079 47.8693C10.1043 47.9172 10.1007 47.9651 10.0989 48.0112C9.90342 51.2752 12.5704 54.012 15.8741 54.012H58.4884V54.0103Z" fill="#EFF1F7"/>
<path d="M355.994 81.6317C364.994 81.6317 365.493 68.228 356.503 67.7949C356.258 67.7825 356.01 67.7771 355.763 67.7771C354.158 67.7771 352.613 68.0292 351.164 68.4906C349.961 61.235 343.599 55.6992 335.926 55.6992C328.254 55.6992 321.614 61.4835 320.618 68.9734C318.759 68.0913 316.675 67.5961 314.474 67.5961C313.245 67.5961 312.051 67.7505 310.914 68.0398C303.044 70.0454 304.696 81.6335 312.822 81.6335H355.998L355.994 81.6317Z" fill="#EFF1F7"/>
<path d="M277.47 25.9272C286.468 25.9272 286.965 12.527 277.979 12.0939C277.733 12.0815 277.486 12.0762 277.238 12.0762C275.635 12.0762 274.089 12.3282 272.64 12.7879C271.436 5.53402 265.076 0 257.407 0C249.738 0 243.098 5.7825 242.103 13.2706C240.243 12.3885 238.159 11.8933 235.96 11.8933C234.732 11.8933 233.539 12.0478 232.4 12.3371C224.532 14.3426 226.184 25.9254 234.308 25.9254H277.47V25.9272Z" fill="#EFF1F7"/>
<path d="M273.617 50.5469C278.338 55.4792 279.629 55.5129 284.613 50.8415C279.629 55.5129 279.595 56.7908 284.316 61.7232C279.595 56.7908 278.304 56.7571 273.319 61.4285C278.304 56.7571 278.338 55.4792 273.617 50.5469Z" fill="#E9ECEF"/>
<path d="M101.096 12.3438C105.816 17.2761 107.107 17.3098 112.092 12.6384C107.107 17.3098 107.073 18.5877 111.794 23.52C107.073 18.5877 105.782 18.554 100.798 23.2254C105.782 18.554 105.816 17.2761 101.096 12.3438Z" fill="#E9ECEF"/>
<path d="M54.3633 82.8086C59.0839 87.7409 60.3752 87.7747 65.3594 83.1032C60.3752 87.7747 60.3411 89.0525 65.0617 93.9849C60.3411 89.0525 59.0498 89.0188 54.0656 93.6903C59.0498 89.0188 59.0839 87.7409 54.3633 82.8086Z" fill="#E9ECEF"/>
<path d="M0.342098 70.2969C5.06267 75.2292 6.35402 75.2629 11.3382 70.5915C6.35402 75.2629 6.31994 76.5408 11.0405 81.4732C6.31994 76.5408 5.0286 76.5071 0.0443726 81.1785C5.0286 76.5071 5.06267 75.2292 0.342098 70.2969Z" fill="#E9ECEF"/>
<path d="M328.693 107.141C333.413 112.073 334.705 112.107 339.689 107.435C334.705 112.107 334.671 113.385 339.391 118.317C334.671 113.385 333.379 113.351 328.395 118.022C333.379 113.351 333.413 112.073 328.693 107.141Z" fill="#E9ECEF"/>
<path d="M158.607 91.2994L201.711 78.7724C202.518 78.5381 202.981 77.7004 202.742 76.9017L185.149 17.6178C184.913 16.8191 184.066 16.3612 183.259 16.5972L153.746 25.1734C153.37 25.2834 153.049 25.5319 152.853 25.8709L143.093 42.7356C142.887 43.0924 142.836 43.5148 142.953 43.9088L156.713 90.2788C156.95 91.0775 157.796 91.5354 158.603 91.2994H158.607Z" fill="white"/>
<path d="M158.175 92.0748C157.805 92.0748 157.438 91.9825 157.104 91.8033C156.578 91.5193 156.196 91.0507 156.028 90.4828L142.268 44.1128C142.097 43.5359 142.171 42.9076 142.474 42.3858L152.235 25.5211C152.523 25.0224 152.99 24.6585 153.547 24.4952L183.06 15.9191C183.634 15.7523 184.24 15.8162 184.766 16.1001C185.291 16.3841 185.673 16.8527 185.842 17.4206L203.434 76.7045C203.603 77.2725 203.538 77.8724 203.252 78.3924C202.965 78.9125 202.491 79.2905 201.917 79.4573L158.813 91.9843C158.603 92.0447 158.392 92.0748 158.178 92.0748H158.175ZM183.691 17.2485C183.614 17.2485 183.539 17.2591 183.463 17.2804L153.951 25.8566C153.75 25.9151 153.583 26.0465 153.479 26.2257L143.719 43.0905C143.611 43.2786 143.584 43.504 143.645 43.7117L157.405 90.0817C157.466 90.2858 157.603 90.4544 157.793 90.5573C157.981 90.6585 158.2 90.6816 158.406 90.623L201.51 78.096C201.716 78.0357 201.887 77.9008 201.991 77.7127C202.095 77.5263 202.118 77.3098 202.057 77.1057L184.464 17.8218C184.403 17.6177 184.267 17.449 184.077 17.3461C183.957 17.2804 183.826 17.2485 183.691 17.2485Z" fill="#0575E6"/>
<path d="M153.54 26.0977L157.138 38.2253C157.391 39.0772 156.899 39.9717 156.04 40.2273L143.231 44.0096" fill="white"/>
<path d="M143.231 44.7171C142.922 44.7171 142.637 44.5184 142.544 44.2095C142.431 43.8333 142.646 43.4375 143.026 43.3256L155.836 39.5434C156.317 39.4014 156.593 38.8991 156.451 38.4235L152.853 26.2959C152.742 25.9196 152.959 25.5256 153.339 25.4155C153.72 25.3055 154.118 25.5202 154.229 25.8965L157.827 38.0241C158.191 39.2488 157.481 40.5409 156.245 40.9047L143.435 44.687C143.367 44.7065 143.297 44.7171 143.229 44.7171H143.231Z" fill="#0575E6"/>
<path d="M161.959 70.7683L159.517 71.4781C159.327 71.5333 159.218 71.7306 159.274 71.9187L162.289 82.0766C162.345 82.2647 162.544 82.3724 162.734 82.3171L165.176 81.6073C165.366 81.552 165.475 81.3548 165.419 81.1667L162.404 71.0088C162.348 70.8207 162.149 70.713 161.959 70.7683Z" fill="#EFF1F7"/>
<path d="M175.396 70.2253L172.954 70.9351C172.764 70.9904 172.655 71.1876 172.711 71.3757L174.807 78.436C174.863 78.6241 175.062 78.7318 175.252 78.6765L177.694 77.9667C177.884 77.9115 177.993 77.7142 177.937 77.5261L175.841 70.4658C175.785 70.2777 175.586 70.17 175.396 70.2253Z" fill="#EFF1F7"/>
<path d="M180.735 65.3073L178.293 66.0171C178.103 66.0724 177.994 66.2697 178.05 66.4578L181.065 76.6156C181.121 76.8037 181.32 76.9114 181.511 76.8562L183.952 76.1463C184.143 76.0911 184.251 75.8938 184.195 75.7057L181.18 65.5479C181.124 65.3598 180.925 65.2521 180.735 65.3073Z" fill="#EFF1F7"/>
<path d="M167.298 65.8464L164.856 66.5562C164.666 66.6115 164.557 66.8087 164.613 66.9968L168.547 80.2506C168.603 80.4387 168.802 80.5464 168.992 80.4911L171.434 79.7813C171.624 79.726 171.733 79.5288 171.677 79.3407L167.743 66.0869C167.687 65.8988 167.488 65.7911 167.298 65.8464Z" fill="#EFF1F7"/>
<path d="M152.859 50.8534C152.626 50.8534 152.412 50.7026 152.342 50.4701C152.258 50.1879 152.421 49.8914 152.706 49.8098L181.654 41.397C181.939 41.3135 182.239 41.4751 182.321 41.7573C182.405 42.0395 182.242 42.3359 181.957 42.4175L153.009 50.8303C152.959 50.8445 152.907 50.8516 152.857 50.8516L152.859 50.8534Z" fill="#EFF1F7"/>
<path d="M154.236 55.498C154.003 55.498 153.79 55.3471 153.72 55.1146C153.635 54.8324 153.798 54.536 154.084 54.4543L183.031 46.0415C183.316 45.9581 183.616 46.1196 183.698 46.4018C183.783 46.684 183.62 46.9804 183.334 47.062L154.387 55.4749C154.337 55.4891 154.285 55.4962 154.234 55.4962L154.236 55.498Z" fill="#EFF1F7"/>
<path d="M155.615 60.1425C155.382 60.1425 155.169 59.9916 155.099 59.7591C155.015 59.4769 155.178 59.1805 155.463 59.0989L184.411 50.686C184.696 50.6026 184.995 50.7641 185.078 51.0463C185.162 51.3285 184.999 51.6249 184.714 51.7066L155.766 60.1194C155.716 60.1336 155.664 60.1407 155.614 60.1407L155.615 60.1425Z" fill="#EFF1F7"/>
<path d="M217.404 75.3056L218.479 73.0462C218.683 72.6149 218.47 72.1037 218.016 71.944L203.589 66.8164L202.956 67.947L216.253 75.6605C216.667 75.9001 217.2 75.7369 217.403 75.3073L217.404 75.3056Z" fill="#0575E6"/>
<path d="M192.765 74.9695C199.22 74.9695 204.453 69.7909 204.453 63.4027C204.453 57.0146 199.22 51.8359 192.765 51.8359C186.309 51.8359 181.076 57.0146 181.076 63.4027C181.076 69.7909 186.309 74.9695 192.765 74.9695Z" fill="#EFF1F7"/>
<path d="M192.765 72.5556C197.874 72.5556 202.016 68.4568 202.016 63.4008C202.016 58.3448 197.874 54.2461 192.765 54.2461C187.656 54.2461 183.514 58.3448 183.514 63.4008C183.514 68.4568 187.656 72.5556 192.765 72.5556Z" fill="white"/>
<path d="M192.767 75.6845C191.185 75.6845 189.601 75.381 188.091 74.7722C185.022 73.5369 182.622 71.1923 181.335 68.1698C178.678 61.9329 181.643 54.7181 187.947 52.0895C194.25 49.4592 201.541 52.3948 204.197 58.6334C205.484 61.6542 205.504 64.991 204.256 68.0295C203.008 71.0663 200.638 73.4411 197.584 74.7154C196.033 75.3633 194.4 75.6863 192.767 75.6863V75.6845ZM192.75 52.5457C191.332 52.5457 189.892 52.819 188.503 53.3976C182.929 55.7227 180.307 62.1015 182.656 67.6178C183.795 70.2907 185.917 72.3637 188.631 73.4571C191.344 74.5504 194.327 74.5309 197.026 73.4056C199.725 72.2786 201.822 70.1789 202.927 67.4935C204.032 64.8082 204.012 61.8566 202.875 59.1854C201.11 55.0429 197.033 52.5474 192.752 52.5474L192.75 52.5457Z" fill="#0575E6"/>
<path d="M192.751 65.3176C192.751 65.3176 192.745 65.3176 192.742 65.3176C192.345 65.3122 192.028 64.991 192.033 64.5987L192.105 58.9511C192.11 58.5589 192.44 58.2447 192.831 58.2501C193.228 58.2554 193.545 58.5766 193.54 58.9689L193.468 64.6165C193.463 65.0052 193.143 65.3176 192.751 65.3176Z" fill="#0575E6"/>
<path d="M192.709 68.5451C192.663 68.5451 192.616 68.5397 192.569 68.5309C192.524 68.522 192.478 68.5078 192.435 68.4901C192.392 68.4723 192.35 68.451 192.311 68.4244C192.272 68.3995 192.236 68.3694 192.202 68.3356C192.069 68.2043 191.992 68.0215 191.992 67.8351C191.992 67.789 191.997 67.7411 192.006 67.6949C192.015 67.6505 192.029 67.6062 192.047 67.5636C192.065 67.5192 192.087 67.4784 192.114 67.4411C192.139 67.4021 192.169 67.3648 192.202 67.3328C192.236 67.2991 192.272 67.2707 192.311 67.2441C192.35 67.2193 192.392 67.1962 192.435 67.1784C192.478 67.1607 192.524 67.1483 192.569 67.1376C192.802 67.0932 193.05 67.1678 193.217 67.3328C193.351 67.4642 193.427 67.647 193.427 67.8351C193.427 68.0233 193.351 68.2043 193.217 68.3356C193.084 68.4688 192.899 68.5451 192.709 68.5451Z" fill="#33D895"/>
<path d="M192.709 68.5481C192.313 68.5481 191.988 68.2268 191.988 67.8346C191.988 67.4423 192.313 67.1211 192.709 67.1211C193.106 67.1211 193.43 67.4423 193.43 67.8346C193.43 68.2268 193.106 68.5481 192.709 68.5481Z" fill="#0575E6"/>
<path d="M316.917 155.754L305.418 158.04L310.038 180.799L285.419 185.695L280.799 162.936L235.688 171.906L232.104 154.253L259.674 84.5683L289.305 78.6758L301.153 137.031L312.652 134.745L316.917 155.754ZM270.104 110.27L257.072 145.796L276.532 141.926L270.104 110.268V110.27Z" fill="#0575E6"/>
<path d="M127.175 167.533L115.607 165.625L111.751 188.522L86.9804 184.437L90.8365 161.539L45.4493 154.053L48.441 136.292L99.2427 80.8594L129.055 85.7775L119.165 144.49L130.734 146.398L127.173 167.535L127.175 167.533ZM99.7611 108.551L74.8184 137.172L94.3966 140.401L99.7611 108.551Z" fill="#0575E6"/>
<path d="M322.57 158.379H35.7413V212.003H322.57V158.379Z" fill="white"/>
<path d="M55.8699 183.734H40.8562C40.8067 183.734 40.7665 183.774 40.7665 183.823V184.453C40.7665 184.502 40.8067 184.542 40.8562 184.542H55.8699C55.9194 184.542 55.9595 184.502 55.9595 184.453V183.823C55.9595 183.774 55.9194 183.734 55.8699 183.734Z" fill="#E9ECEF"/>
<path d="M97.096 183.734H82.0824C82.0328 183.734 81.9927 183.774 81.9927 183.823V184.453C81.9927 184.502 82.0328 184.542 82.0824 184.542H97.096C97.1455 184.542 97.1857 184.502 97.1857 184.453V183.823C97.1857 183.774 97.1455 183.734 97.096 183.734Z" fill="#E9ECEF"/>
<path d="M134.617 174.148H119.603C119.553 174.148 119.513 174.188 119.513 174.237V174.867C119.513 174.916 119.553 174.956 119.603 174.956H134.617C134.666 174.956 134.706 174.916 134.706 174.867V174.237C134.706 174.188 134.666 174.148 134.617 174.148Z" fill="#E9ECEF"/>
<path d="M155.956 184.742H140.942C140.893 184.742 140.853 184.782 140.853 184.831V185.461C140.853 185.51 140.893 185.55 140.942 185.55H155.956C156.006 185.55 156.046 185.51 156.046 185.461V184.831C156.046 184.782 156.006 184.742 155.956 184.742Z" fill="#E9ECEF"/>
<path d="M208.607 184.742H193.593C193.544 184.742 193.504 184.782 193.504 184.831V185.461C193.504 185.51 193.544 185.55 193.593 185.55H208.607C208.657 185.55 208.697 185.51 208.697 185.461V184.831C208.697 184.782 208.657 184.742 208.607 184.742Z" fill="#E9ECEF"/>
<path d="M267.51 184.148H252.497C252.447 184.148 252.407 184.188 252.407 184.237V184.867C252.407 184.916 252.447 184.956 252.497 184.956H267.51C267.56 184.956 267.6 184.916 267.6 184.867V184.237C267.6 184.188 267.56 184.148 267.51 184.148Z" fill="#E9ECEF"/>
<path d="M80.3875 172.598H65.3738C65.3243 172.598 65.2841 172.637 65.2841 172.686V173.316C65.2841 173.365 65.3243 173.405 65.3738 173.405H80.3875C80.437 173.405 80.4771 173.365 80.4771 173.316V172.686C80.4771 172.637 80.437 172.598 80.3875 172.598Z" fill="#E9ECEF"/>
<path d="M185.218 172.203H170.204C170.154 172.203 170.114 172.243 170.114 172.292V172.922C170.114 172.971 170.154 173.011 170.204 173.011H185.218C185.267 173.011 185.307 172.971 185.307 172.922V172.292C185.307 172.243 185.267 172.203 185.218 172.203Z" fill="#E9ECEF"/>
<path d="M292.026 172.141H277.012C276.963 172.141 276.923 172.18 276.923 172.229V172.859C276.923 172.908 276.963 172.948 277.012 172.948H292.026C292.076 172.948 292.116 172.908 292.116 172.859V172.229C292.116 172.18 292.076 172.141 292.026 172.141Z" fill="#E9ECEF"/>
<path d="M239.454 168.383H224.44C224.391 168.383 224.351 168.423 224.351 168.472V169.102C224.351 169.151 224.391 169.19 224.44 169.19H239.454C239.504 169.19 239.544 169.151 239.544 169.102V168.472C239.544 168.423 239.504 168.383 239.454 168.383Z" fill="#E9ECEF"/>
</svg>
