<svg width="17" height="17" viewBox="0 0 17 17" fill="none" xmlns="http://www.w3.org/2000/svg">
<path d="M14.2698 7.31469C14.2698 8.60819 13.8862 9.87264 13.1676 10.9482C12.449 12.0237 11.4276 12.862 10.2326 13.357C9.03754 13.852 7.72256 13.9816 6.4539 13.7293C5.18525 13.477 4.01989 12.8542 3.10519 11.9396C2.1905 11.025 1.56754 9.85973 1.3151 8.5911C1.06265 7.32247 1.19206 6.00748 1.68696 4.8124C2.18185 3.61731 3.02001 2.59582 4.09544 1.87708C5.17087 1.15834 6.43528 0.774628 7.72878 0.774475C8.58771 0.774373 9.43826 0.943466 10.2318 1.2721C11.0254 1.60073 11.7465 2.08246 12.3539 2.68979C12.9613 3.29711 13.4431 4.01813 13.7718 4.81168C14.1006 5.60523 14.2698 6.45575 14.2698 7.31469Z" stroke="#0575E6" stroke-width="1.54908" stroke-linecap="round" stroke-linejoin="round"/>
<path d="M15.9048 15.4906L12.3481 11.934" stroke="#0575E6" stroke-width="1.54908" stroke-linecap="round" stroke-linejoin="round"/>
</svg>
