<svg width="82" height="68" viewBox="0 0 82 68" fill="none" xmlns="http://www.w3.org/2000/svg">
<path fill-rule="evenodd" clip-rule="evenodd" d="M0 8.23334C0 3.68619 3.68619 0 8.23333 0H72.8333C77.3805 0 81.0667 3.68619 81.0667 8.23333V58.9C81.0667 63.4471 77.3805 67.1333 72.8333 67.1333H8.23333C3.68619 67.1333 0 63.4472 0 58.9V8.23334ZM8.23333 3.8C5.78487 3.8 3.8 5.78487 3.8 8.23334V58.9C3.8 61.3485 5.78487 63.3333 8.23333 63.3333H72.8333C75.2818 63.3333 77.2667 61.3485 77.2667 58.9V8.23333C77.2667 5.78487 75.2818 3.8 72.8333 3.8H8.23333Z" fill="#B2B9C4"/>
<circle cx="18.9999" cy="17.7343" r="8.23333" fill="#B2B9C4"/>
<path d="M10.7666 54.0667V48.1904C10.7666 47.7484 10.9422 47.3244 11.2548 47.0119L22.9429 35.3238C23.572 34.6947 24.5842 34.6706 25.2425 35.269L29.8738 39.4793C30.5254 40.0717 31.5254 40.0549 32.1568 39.4411L52.655 19.5122C53.3084 18.877 54.3509 18.8843 54.9953 19.5287L71.0784 35.6119C71.391 35.9244 71.5666 36.3484 71.5666 36.7904V54.0667C71.5666 54.9872 70.8204 55.7334 69.8999 55.7334H12.4333C11.5128 55.7334 10.7666 54.9872 10.7666 54.0667Z" fill="#B2B9C4"/>
</svg>
