<svg width="524" height="391" viewBox="0 0 524 391" fill="none" xmlns="http://www.w3.org/2000/svg">
<path d="M128.212 354.719H164.263V354.981H128.212V354.719Z" fill="#E6E6E6"/>
<path d="M407.63 354.845H427.919V355.107H407.63V354.845Z" fill="#E6E6E6"/>
<path d="M260.952 354.236H302.076V354.499H260.952V354.236Z" fill="#E6E6E6"/>
<path d="M303.123 350.5H321.505V350.762H303.123V350.5Z" fill="#E6E6E6"/>
<path d="M79.0611 350.637H134.595V350.899H79.0611V350.637Z" fill="#E6E6E6"/>
<path d="M353.176 127.461C353.173 124.026 351.808 120.731 349.381 118.303C346.954 115.875 343.664 114.51 340.233 114.51H337.32C333.891 114.513 330.603 115.879 328.178 118.307C325.754 120.735 324.39 124.027 324.387 127.461C324.387 129.162 324.722 130.846 325.372 132.417C326.022 133.989 326.974 135.416 328.175 136.619C329.376 137.821 330.802 138.775 332.371 139.426C333.94 140.077 335.621 140.412 337.32 140.412H340.233C341.932 140.413 343.615 140.079 345.185 139.429C346.756 138.779 348.182 137.825 349.384 136.623C350.586 135.42 351.54 133.992 352.19 132.42C352.841 130.848 353.176 129.163 353.176 127.461Z" fill="#F5F5F5"/>
<path d="M154.748 225.642H199.717V347.32H154.748V225.642Z" fill="#E0E0E0"/>
<path d="M166.758 347.32H154.748V327.17H179.344L166.758 347.32Z" fill="#FAFAFA"/>
<path d="M356.802 241.206H370.374C370.374 241.206 368.016 249.36 368.016 254.156C368.016 258.953 378.338 277.749 363.583 277.749C348.827 277.749 359.16 258.953 359.16 254.156C359.16 249.36 356.802 241.206 356.802 241.206Z" fill="#FAFAFA"/>
<path d="M410.229 255.374V262.793C410.229 271.022 402.285 277.749 392.581 277.749H383.83C374.126 277.749 366.182 271.022 366.182 262.793V255.374H410.229Z" fill="#F0F0F0"/>
<path d="M300.2 329.426H279.302V294.573H300.2V329.426Z" fill="white"/>
<path d="M282.562 329.961H281.136V295.108H282.562V329.961Z" fill="#E6E6E6"/>
<path d="M281.032 330.224H277.385C277.107 330.224 276.882 329.998 276.882 329.72V295.338C276.882 295.06 277.107 294.835 277.385 294.835H281.032C281.309 294.835 281.535 295.06 281.535 295.338V329.72C281.535 329.998 281.309 330.224 281.032 330.224Z" fill="#EBEBEB"/>
<path d="M281.535 311.186H276.882V302.916H281.535V311.186Z" fill="white"/>
<path d="M281.535 318.847H276.882V313.747H281.535V318.847Z" fill="white"/>
<path d="M301.269 330.224H282.436C282.158 330.224 281.933 329.998 281.933 329.72V295.338C281.933 295.06 282.158 294.835 282.436 294.835H301.269C301.546 294.835 301.772 295.06 301.772 295.338V329.72C301.772 329.998 301.546 330.224 301.269 330.224Z" fill="#EBEBEB"/>
<path d="M310.397 329.332H287.341V290.878H310.397V329.332Z" fill="white"/>
<path d="M290.914 329.94H289.353V291.487H290.914V329.94Z" fill="#E6E6E6"/>
<path d="M289.237 330.234H285.213C284.906 330.234 284.658 329.985 284.658 329.678V291.749C284.658 291.442 284.906 291.193 285.213 291.193H289.237C289.544 291.193 289.793 291.442 289.793 291.749V329.678C289.793 329.985 289.544 330.234 289.237 330.234Z" fill="#F0F0F0"/>
<path d="M289.793 304.962H284.658V303.63H289.793V304.962Z" fill="white"/>
<path d="M289.793 308.814H284.658V307.481H289.793V308.814Z" fill="white"/>
<path d="M289.793 312.666H284.658V311.333H289.793V312.666Z" fill="white"/>
<path d="M311.56 330.234H290.789C290.482 330.234 290.233 329.985 290.233 329.678V291.749C290.233 291.442 290.482 291.193 290.789 291.193H311.56C311.867 291.193 312.115 291.442 312.115 291.749V329.678C312.115 329.985 311.867 330.234 311.56 330.234Z" fill="#F0F0F0"/>
<path d="M338.797 316.832C338.795 318.004 339.14 319.149 339.788 320.124C340.437 321.099 341.359 321.859 342.439 322.309C343.519 322.758 344.708 322.877 345.855 322.65C347.002 322.422 348.056 321.86 348.884 321.032C349.712 320.205 350.276 319.15 350.504 318.002C350.733 316.853 350.617 315.662 350.17 314.58C349.723 313.498 348.965 312.573 347.993 311.922C347.021 311.271 345.878 310.924 344.708 310.924C343.142 310.924 341.64 311.546 340.532 312.654C339.424 313.762 338.8 315.264 338.797 316.832Z" fill="#FAFAFA"/>
<path d="M348.869 319.656C348.869 320.571 349.14 321.466 349.648 322.227C350.155 322.988 350.877 323.581 351.722 323.932C352.566 324.282 353.496 324.374 354.392 324.195C355.289 324.016 356.112 323.576 356.758 322.928C357.405 322.281 357.845 321.456 358.023 320.559C358.202 319.661 358.11 318.73 357.76 317.884C357.411 317.039 356.818 316.316 356.058 315.807C355.298 315.299 354.405 315.027 353.49 315.027C352.266 315.03 351.092 315.519 350.225 316.386C349.359 317.253 348.872 318.429 348.869 319.656Z" fill="#FAFAFA"/>
<path d="M328.684 319.655C328.684 320.826 329.031 321.971 329.68 322.944C330.33 323.917 331.253 324.676 332.333 325.124C333.413 325.572 334.601 325.689 335.748 325.461C336.895 325.233 337.948 324.669 338.774 323.841C339.601 323.013 340.164 321.958 340.392 320.81C340.62 319.662 340.503 318.472 340.056 317.39C339.608 316.309 338.851 315.384 337.879 314.734C336.907 314.083 335.764 313.736 334.595 313.736C333.028 313.739 331.526 314.364 330.418 315.473C329.311 316.583 328.687 318.086 328.684 319.655Z" fill="#FAFAFA"/>
<path d="M319.001 317.924C319.001 319.094 319.347 320.239 319.997 321.212C320.646 322.185 321.569 322.944 322.649 323.392C323.729 323.84 324.918 323.957 326.064 323.729C327.211 323.501 328.264 322.937 329.091 322.109C329.917 321.281 330.48 320.227 330.708 319.078C330.937 317.93 330.819 316.74 330.372 315.658C329.925 314.577 329.167 313.652 328.195 313.002C327.223 312.352 326.08 312.004 324.911 312.004C323.344 312.004 321.84 312.628 320.732 313.738C319.623 314.848 319.001 316.354 319.001 317.924Z" fill="#FAFAFA"/>
<path d="M369.755 318.69C369.755 318.69 368.948 330.234 337.854 330.234C306.76 330.234 305.953 318.69 305.953 318.69H369.755Z" fill="#F5F5F5"/>
<path d="M282.562 266.205C282.562 266.205 281.273 277.749 231.996 277.749C182.719 277.749 181.44 266.205 181.44 266.205H282.562Z" fill="white"/>
<path opacity="0.3" d="M262 391C149.777 391 58.8032 385.681 58.8032 379.12C58.8032 372.558 149.777 367.239 262 367.239C374.222 367.239 465.197 372.558 465.197 379.12C465.197 385.681 374.222 391 262 391Z" fill="white"/>
<path d="M370.026 221.785C347.86 199.587 347.86 163.598 370.026 141.4C392.192 119.202 428.131 119.202 450.297 141.4C472.463 163.598 472.463 199.587 450.297 221.785C428.131 243.983 392.192 243.983 370.026 221.785Z" fill="#407BFF"/>
<path opacity="0.4" d="M370.026 221.785C347.86 199.587 347.86 163.598 370.026 141.4C392.192 119.202 428.131 119.202 450.297 141.4C472.463 163.598 472.463 199.587 450.297 221.785C428.131 243.983 392.192 243.983 370.026 221.785Z" fill="#020D25"/>
<path opacity="0.2" d="M363.172 189.619C358.746 163.633 376.194 138.974 402.142 134.541C428.091 130.109 452.715 147.581 457.141 173.567C461.567 199.553 444.12 224.212 418.171 228.644C392.222 233.077 367.598 215.604 363.172 189.619Z" fill="#5181EF"/>
<path d="M289.04 136.39C274.918 119.656 277.017 94.6254 293.728 80.4837C310.438 66.3419 335.433 68.4438 349.554 85.1783C363.676 101.913 361.577 126.943 344.867 141.085C328.156 155.226 303.161 153.125 289.04 136.39Z" fill="#407BFF"/>
<path opacity="0.4" d="M289.04 136.39C274.918 119.656 277.017 94.6254 293.728 80.4837C310.438 66.3419 335.433 68.4438 349.554 85.1783C363.676 101.913 361.577 126.943 344.867 141.085C328.156 155.226 303.161 153.125 289.04 136.39Z" fill="#020D25"/>
<path opacity="0.2" d="M293.657 131.978C281.952 117.799 283.942 96.802 298.101 85.0802C312.26 73.3583 333.227 75.3505 344.932 89.5299C356.637 103.709 354.648 124.706 340.489 136.428C326.33 148.15 305.362 146.158 293.657 131.978Z" fill="#5181EF"/>
<path d="M415.783 350.5H416.831V362.349H415.783V350.5Z" fill="#407BFF"/>
<path d="M126.598 186.223H397.391C406.102 186.223 413.163 193.294 413.163 202.018V360.754C413.163 369.477 406.102 376.549 397.391 376.549H126.598C117.887 376.549 110.826 369.477 110.826 360.754V202.018C110.826 193.294 117.887 186.223 126.598 186.223Z" fill="#2C61D8"/>
<path opacity="0.5" d="M159.767 252.498C148.961 252.498 140.201 243.726 140.201 232.904C140.201 222.083 148.961 213.31 159.767 213.31C170.574 213.31 179.334 222.083 179.334 232.904C179.334 243.726 170.574 252.498 159.767 252.498Z" fill="white"/>
<path d="M185.024 252.498C174.218 252.498 165.458 243.726 165.458 232.904C165.458 222.083 174.218 213.31 185.024 213.31C195.83 213.31 204.59 222.083 204.59 232.904C204.59 243.726 195.83 252.498 185.024 252.498Z" fill="#407BFF"/>
<path d="M330.392 252.499H376.997C380.748 252.499 383.788 255.543 383.788 259.299V289.808C383.788 293.564 380.748 296.609 376.997 296.609H330.392C326.642 296.609 323.601 293.564 323.601 289.808V259.299C323.601 255.543 326.642 252.499 330.392 252.499Z" fill="#407BFF"/>
<path opacity="0.3" d="M330.392 252.499H376.997C380.748 252.499 383.788 255.543 383.788 259.299V289.808C383.788 293.564 380.748 296.609 376.997 296.609H330.392C326.642 296.609 323.601 293.564 323.601 289.808V259.299C323.601 255.543 326.642 252.499 330.392 252.499Z" fill="white"/>
<path d="M298.145 208.503H378.978C381.634 208.503 383.788 210.658 383.788 213.315C383.788 215.973 381.634 218.127 378.978 218.127H298.145C295.489 218.127 293.335 215.973 293.335 213.315C293.335 210.658 295.489 208.503 298.145 208.503Z" fill="#407BFF"/>
<path opacity="0.3" d="M298.145 208.503H378.978C381.634 208.503 383.788 210.658 383.788 213.315C383.788 215.973 381.634 218.127 378.978 218.127H298.145C295.489 218.127 293.335 215.973 293.335 213.315C293.335 210.658 295.489 208.503 298.145 208.503Z" fill="white"/>
<path d="M340.38 318.501H376.735C380.63 318.501 383.788 321.663 383.788 325.564V332.165C383.788 336.066 380.63 339.229 376.735 339.229H340.38C336.485 339.229 333.327 336.066 333.327 332.165V325.564C333.327 321.663 336.485 318.501 340.38 318.501Z" fill="#407BFF"/>
<path opacity="0.3" d="M340.38 318.501H376.735C380.63 318.501 383.788 321.663 383.788 325.564V332.165C383.788 336.066 380.63 339.229 376.735 339.229H340.38C336.485 339.229 333.327 336.066 333.327 332.165V325.564C333.327 321.663 336.485 318.501 340.38 318.501Z" fill="white"/>
<path d="M276.012 318.501H312.367C316.262 318.501 319.42 321.663 319.42 325.564V332.165C319.42 336.066 316.262 339.229 312.367 339.229H276.012C272.116 339.229 268.959 336.066 268.959 332.165V325.564C268.959 321.663 272.116 318.501 276.012 318.501Z" fill="#407BFF"/>
<path opacity="0.3" d="M276.012 318.501H312.367C316.262 318.501 319.42 321.663 319.42 325.564V332.165C319.42 336.066 316.262 339.229 312.367 339.229H276.012C272.116 339.229 268.959 336.066 268.959 332.165V325.564C268.959 321.663 272.116 318.501 276.012 318.501Z" fill="white"/>
<path d="M211.633 318.501H247.988C251.883 318.501 255.041 321.663 255.041 325.564V332.165C255.041 336.066 251.883 339.229 247.988 339.229H211.633C207.738 339.229 204.58 336.066 204.58 332.165V325.564C204.58 321.663 207.738 318.501 211.633 318.501Z" fill="#407BFF"/>
<path opacity="0.3" d="M211.633 318.501H247.988C251.883 318.501 255.041 321.663 255.041 325.564V332.165C255.041 336.066 251.883 339.229 247.988 339.229H211.633C207.738 339.229 204.58 336.066 204.58 332.165V325.564C204.58 321.663 207.738 318.501 211.633 318.501Z" fill="white"/>
<path d="M147.265 318.501H183.62C187.515 318.501 190.673 321.663 190.673 325.564V332.165C190.673 336.066 187.515 339.229 183.62 339.229H147.265C143.37 339.229 140.212 336.066 140.212 332.165V325.564C140.212 321.663 143.37 318.501 147.265 318.501Z" fill="#407BFF"/>
<path opacity="0.3" d="M147.265 318.501H183.62C187.515 318.501 190.673 321.663 190.673 325.564V332.165C190.673 336.066 187.515 339.229 183.62 339.229H147.265C143.37 339.229 140.212 336.066 140.212 332.165V325.564C140.212 321.663 143.37 318.501 147.265 318.501Z" fill="white"/>
<path d="M216.936 117.355C219.42 124.376 222.176 131.166 225.1 137.956C228.059 144.861 231.455 151.571 235.266 158.043C235.779 158.873 236.314 159.702 236.869 160.531L237.278 161.15L237.833 161.916C238.21 162.399 238.567 162.819 238.881 163.228C240.202 164.702 241.601 166.104 243.073 167.426C245.871 170.018 248.722 172.369 251.604 174.688C257.389 179.285 263.3 183.588 269.42 187.671L273.077 183.126L257.672 167.919C255.125 165.39 252.599 162.84 250.241 160.289C249.078 159.019 247.946 157.718 247.014 156.522C246.783 156.228 246.584 155.934 246.406 155.682L246.186 155.325L245.882 154.78C245.473 154.055 245.043 153.352 244.645 152.607C241.438 146.572 238.609 140.013 235.884 133.359C233.159 126.706 230.539 119.999 228.024 113.345L216.936 117.355Z" fill="#E4897B"/>
<path d="M213.991 112.296C211.612 119.265 225.593 139.761 225.593 139.761L238.944 132.321C236.669 125.925 233.98 119.685 230.895 113.639C226.221 104.782 216.601 104.645 213.991 112.296Z" fill="#407BFF"/>
<path opacity="0.7" d="M213.991 112.296C211.612 119.265 225.593 139.761 225.593 139.761L238.944 132.321C236.669 125.925 233.98 119.685 230.895 113.639C226.221 104.782 216.601 104.645 213.991 112.296Z" fill="white"/>
<path opacity="0.31" d="M213.792 113.167C216.789 111.729 220.237 112.936 223.874 118.687C227.51 124.439 230.602 134.042 230.937 136.781L225.582 139.751C225.582 139.751 212.681 120.818 213.792 113.167Z" fill="#407BFF"/>
<path d="M223.035 106.965C223.035 106.965 233.012 130.463 225.823 174.216H184.27C183.756 167.825 186.691 136.665 179.491 106.566C184.065 105.674 188.694 105.085 193.346 104.803C199.227 104.467 205.123 104.467 211.004 104.803C215.064 105.215 219.086 105.938 223.035 106.965Z" fill="#407BFF"/>
<path opacity="0.7" d="M223.035 106.965C223.035 106.965 233.012 130.463 225.823 174.216H184.27C183.756 167.825 186.691 136.665 179.491 106.566C184.065 105.674 188.694 105.085 193.346 104.803C199.227 104.467 205.123 104.467 211.004 104.803C215.064 105.215 219.086 105.938 223.035 106.965Z" fill="white"/>
<path d="M169.556 360.638L175.708 366.159L187.435 353.932L181.273 348.412L169.556 360.638Z" fill="#E4897B"/>
<path d="M190.652 372.12H198.418L199.424 354.11H191.658L190.652 372.12Z" fill="#E4897B"/>
<path d="M187.424 353.932L181.388 360.239L175.226 354.709L181.262 348.412L187.424 353.932Z" fill="#CE6F64"/>
<path d="M191.658 354.11H199.424L198.9 363.398H191.134L191.658 354.11Z" fill="#CE6F64"/>
<path d="M225.823 174.216C225.823 174.216 234.008 230.952 236.796 261.828C239.038 286.607 185.538 360.481 185.538 360.481L175.194 350.731C175.194 350.731 214.264 284.497 211.256 256.917C208.342 230.207 198.47 174.185 198.47 174.185L225.823 174.216Z" fill="#305CBF"/>
<path opacity="0.2" d="M211.256 256.948C209.757 243.189 206.404 221.633 203.522 203.98C205.031 201.02 209.265 195.028 209.265 195.028C213.058 208.157 221.306 257.651 209.537 324.494C197.276 344.287 185.538 360.512 185.538 360.512L183.934 334.989C195.263 313.642 213.341 276.017 211.256 256.948Z" fill="black"/>
<path d="M211.046 174.216C211.046 174.216 211.78 233.67 210.522 255.951C209.149 280.341 202.233 361.163 202.233 361.163H188.001C188.001 361.163 188.431 282.314 187.592 258.176C186.659 231.939 184.249 174.216 184.249 174.216H211.046Z" fill="#305CBF"/>
<path d="M198.827 371.227H190.097C189.951 371.222 189.809 371.274 189.701 371.372C189.593 371.47 189.528 371.607 189.52 371.752L189.091 378.668C189.089 378.849 189.123 379.028 189.191 379.195C189.259 379.363 189.359 379.515 189.485 379.644C189.612 379.772 189.762 379.875 189.928 379.945C190.095 380.015 190.273 380.052 190.453 380.054C193.492 380.001 194.949 379.823 198.785 379.823C201.143 379.823 211.183 380.075 214.442 380.075C217.701 380.075 217.586 376.842 216.234 376.548C210.04 375.237 202.358 373.4 200.158 371.7C199.778 371.4 199.31 371.233 198.827 371.227Z" fill="#263238"/>
<path d="M177.405 363.944L169.923 358.896C169.801 358.799 169.649 358.746 169.493 358.746C169.337 358.746 169.186 358.799 169.063 358.896L163.341 364.679C163.23 364.806 163.147 364.956 163.1 365.118C163.053 365.281 163.042 365.452 163.068 365.619C163.094 365.786 163.156 365.946 163.25 366.086C163.345 366.226 163.469 366.344 163.614 366.431C168.393 370.115 171.841 372.896 174.565 375.961C177.709 379.54 179.407 380.054 186.743 380.054C190.139 380.054 192.057 377.189 190.673 376.748C178.453 372.875 181.723 371.186 178.747 365.508C178.437 364.883 177.975 364.346 177.405 363.944Z" fill="#263238"/>
<path d="M271.317 182.15L279.418 182.434L277.72 188.794C277.72 188.794 269.252 189.549 268.498 186.989L271.317 182.15Z" fill="#E4897B"/>
<path d="M288.158 186.223L282.478 189.539L277.72 188.794L279.418 182.434L288.158 186.223Z" fill="#E4897B"/>
<path opacity="0.31" d="M188.776 113.996C189.636 118.95 188.493 130.788 184.249 144.495C183.917 132.751 182.553 121.06 180.172 109.557V109.494C182.897 109.221 187.948 109.347 188.776 113.996Z" fill="#407BFF"/>
<path d="M194.404 84.8833C195.714 90.5716 197.192 101.004 193.356 104.824C193.356 104.824 195.012 109.536 205.576 109.536C217.188 109.536 211.015 104.824 211.015 104.824C204.622 103.312 204.622 98.6002 205.576 94.1818L194.404 84.8833Z" fill="#E4897B"/>
<path d="M205.869 109.515L209.013 112.863L207.473 116.095L204.968 116.211L202.83 113.125L205.869 109.515Z" fill="#407BFF"/>
<path d="M198.952 88.6719L205.565 94.1502C205.327 95.1849 205.18 96.2384 205.125 97.2987C202.694 96.9524 199.277 94.2867 198.931 91.7469C198.746 90.7296 198.753 89.6866 198.952 88.6719Z" fill="#CE6F64"/>
<path d="M208.185 65.5935C212.157 66.9474 215.333 77.4948 210.7 80.2865C206.068 83.0781 200.64 63.0223 208.185 65.5935Z" fill="#263238"/>
<path d="M191.92 78.922C194.289 86.2685 195.295 90.7078 200.074 93.7199C201.615 94.7122 203.399 95.2634 205.231 95.314C207.062 95.3646 208.873 94.9127 210.467 94.007C212.061 93.1014 213.377 91.7766 214.274 90.1758C215.17 88.5751 215.612 86.7594 215.553 84.9251C215.458 77.862 211.602 66.9892 203.48 65.6249C201.729 65.2865 199.921 65.4146 198.235 65.9963C196.55 66.5781 195.046 67.593 193.876 68.9396C192.705 70.2861 191.908 71.917 191.565 73.669C191.222 75.4209 191.344 77.2324 191.92 78.922Z" fill="#E4897B"/>
<path d="M186.052 66.643C188.42 72.3732 182.908 67.5875 184.333 74.3883C185.255 78.8171 193.241 89.4275 196.322 88.462C199.403 87.4965 199.372 79.9716 195.442 74.6506C193.178 71.5966 198.072 68.1333 209.066 68.5006C220.059 68.8679 226.703 62.6759 212.094 58.1316C212.094 58.1316 217.481 61.2801 214.285 62.3296C209.757 64.0193 181.304 55.1615 186.052 66.643Z" fill="#263238"/>
<path d="M188.148 69.2665C188.263 69.2665 185.685 68.6263 184.312 64.019C184.312 64.0925 184.762 70.8827 188.148 69.2665Z" fill="#263238"/>
<path d="M208.72 59.1497C215.479 61.2486 212.681 63.61 209.883 64.1977L203.469 61.6789C213.216 62.9698 208.72 59.1497 208.72 59.1497Z" fill="#263238"/>
<path d="M190.621 87.8954C192.026 89.2633 193.901 90.0406 195.861 90.0678C198.449 90.0678 199.005 87.612 197.611 85.555C196.374 83.7079 193.545 81.483 191.26 82.48C188.975 83.477 188.902 86.2057 190.621 87.8954Z" fill="#E4897B"/>
<path d="M203.857 78.5127C204.014 79.1214 204.465 79.5622 204.905 79.4572C205.345 79.3523 205.502 78.7961 205.345 78.1873C205.188 77.5786 204.737 77.1378 204.297 77.2533C203.857 77.3687 203.7 77.904 203.857 78.5127Z" fill="#263238"/>
<path d="M210.774 76.9909C210.931 77.5997 211.382 78.0404 211.822 77.9355C212.262 77.8305 212.419 77.2848 212.262 76.6761C212.105 76.0674 211.665 75.6266 211.214 75.7316C210.763 75.8365 210.648 76.3822 210.774 76.9909Z" fill="#263238"/>
<path d="M208.657 77.7781C209.848 79.4773 211.258 81.0122 212.849 82.3434C212.499 82.7329 212.068 83.0408 211.586 83.2457C211.105 83.4506 210.584 83.5474 210.061 83.5293L208.657 77.7781Z" fill="#DE5753"/>
<path d="M207.504 85.7439C207.938 85.7434 208.37 85.6941 208.793 85.597C208.84 85.5846 208.88 85.5549 208.905 85.5139C208.93 85.4729 208.939 85.4238 208.929 85.3766C208.917 85.33 208.887 85.29 208.846 85.2646C208.805 85.2393 208.756 85.2305 208.709 85.2402C207.938 85.4123 207.137 85.4073 206.367 85.2255C205.598 85.0438 204.879 84.69 204.266 84.1907C204.231 84.1567 204.184 84.1377 204.135 84.1377C204.086 84.1377 204.039 84.1567 204.004 84.1907C203.97 84.2259 203.951 84.2729 203.951 84.3219C203.951 84.3708 203.97 84.4178 204.004 84.453C204.977 85.292 206.22 85.7504 207.504 85.7439Z" fill="#263238"/>
<path d="M201.111 76.7602C201.183 76.7614 201.253 76.741 201.313 76.7017C201.373 76.6624 201.419 76.606 201.447 76.5398C201.619 76.1188 201.889 75.7454 202.236 75.4513C202.583 75.1572 202.995 74.951 203.438 74.8501C203.486 74.8437 203.533 74.8277 203.575 74.803C203.617 74.7783 203.654 74.7454 203.683 74.7064C203.712 74.6673 203.734 74.6227 203.745 74.5753C203.757 74.5279 203.76 74.4786 203.752 74.4303C203.737 74.3337 203.684 74.2468 203.606 74.1881C203.528 74.1294 203.43 74.1033 203.333 74.1155C202.768 74.2307 202.24 74.4821 201.795 74.8478C201.349 75.2136 200.999 75.6827 200.776 76.2144C200.755 76.2583 200.744 76.306 200.742 76.3545C200.74 76.403 200.749 76.4513 200.766 76.4965C200.784 76.5417 200.811 76.5828 200.845 76.6173C200.879 76.6518 200.92 76.679 200.964 76.6972C201.008 76.7287 201.058 76.7502 201.111 76.7602Z" fill="#263238"/>
<path d="M213.111 73.9791C213.195 73.9784 213.276 73.9488 213.341 73.8951C213.417 73.8317 213.464 73.7414 213.474 73.6434C213.484 73.5454 213.455 73.4474 213.394 73.3704C213.025 72.9103 212.555 72.5414 212.02 72.2921C211.486 72.0428 210.902 71.9198 210.313 71.9325C210.264 71.9365 210.217 71.95 210.174 71.9722C210.131 71.9944 210.093 72.025 210.062 72.062C210.031 72.0991 210.007 72.142 209.993 72.1882C209.978 72.2344 209.973 72.2831 209.977 72.3313C209.98 72.3802 209.992 72.428 210.014 72.4717C210.036 72.5155 210.066 72.5543 210.104 72.5858C210.141 72.6173 210.184 72.6408 210.231 72.6548C210.278 72.6688 210.327 72.673 210.376 72.6672C210.847 72.6622 211.313 72.7656 211.738 72.9694C212.163 73.1732 212.536 73.4719 212.828 73.8426C212.861 73.8855 212.904 73.9201 212.954 73.9437C213.003 73.9674 213.056 73.9795 213.111 73.9791Z" fill="#263238"/>
<path d="M177.479 111.929C176.661 113.199 175.98 114.322 175.289 115.539C174.597 116.756 173.937 117.932 173.287 119.149C172.008 121.574 170.803 124.05 169.703 126.58C167.394 131.758 165.662 137.174 164.536 142.731L164.431 143.267L164.379 143.529L164.305 143.97C164.216 144.557 164.171 145.15 164.169 145.743C164.18 146.738 164.285 147.729 164.484 148.703C164.839 150.31 165.351 151.878 166.014 153.384C167.19 156.023 168.593 158.554 170.206 160.951C173.254 165.507 176.721 169.769 180.56 173.681L185.119 170.018C182.583 165.589 180.057 160.993 177.94 156.49C176.899 154.337 176.01 152.114 175.278 149.836C174.979 148.887 174.775 147.909 174.67 146.919C174.634 146.595 174.634 146.267 174.67 145.943C174.67 145.848 174.67 145.764 174.733 145.754C174.796 145.743 174.733 145.754 174.733 145.701L174.796 145.492L174.922 145.061C175.584 142.746 176.371 140.469 177.28 138.24C178.202 135.962 179.229 133.695 180.308 131.439C181.388 129.182 182.551 126.957 183.746 124.733C184.333 123.62 184.951 122.518 185.569 121.427L187.414 118.278L177.479 111.929Z" fill="#E4897B"/>
<path d="M201.572 372.571C202.095 372.623 202.619 372.477 203.04 372.161C203.158 372.03 203.241 371.87 203.282 371.698C203.322 371.525 203.318 371.345 203.27 371.175C203.247 371.06 203.195 370.953 203.12 370.863C203.045 370.773 202.949 370.704 202.84 370.661C201.887 370.283 199.696 371.794 199.445 371.962C199.414 371.981 199.39 372.01 199.377 372.044C199.363 372.078 199.362 372.116 199.372 372.151C199.377 372.186 199.393 372.219 199.417 372.245C199.441 372.271 199.473 372.29 199.508 372.298C200.185 372.461 200.877 372.552 201.572 372.571ZM202.484 370.965C202.557 370.953 202.631 370.953 202.704 370.965C202.758 370.984 202.804 371.018 202.84 371.062C202.875 371.107 202.897 371.16 202.903 371.217C202.941 371.327 202.95 371.445 202.928 371.559C202.906 371.673 202.854 371.78 202.778 371.867C202.421 372.224 201.405 372.266 200.011 371.993C200.752 371.479 201.596 371.131 202.484 370.975V370.965Z" fill="white"/>
<path d="M199.55 372.309H199.644C200.42 371.847 201.572 370.21 201.394 369.37C201.363 369.216 201.281 369.077 201.161 368.976C201.041 368.875 200.891 368.818 200.734 368.814C200.596 368.796 200.455 368.809 200.323 368.853C200.191 368.896 200.07 368.969 199.969 369.066C199.183 369.832 199.361 372.067 199.361 372.162C199.365 372.193 199.377 372.223 199.395 372.249C199.413 372.274 199.438 372.295 199.466 372.309H199.55ZM200.598 369.16H200.682C200.944 369.16 201.006 369.318 201.027 369.423C201.143 369.979 200.378 371.207 199.707 371.773C199.61 370.922 199.787 370.062 200.21 369.318C200.263 369.266 200.325 369.226 200.393 369.199C200.462 369.172 200.535 369.159 200.608 369.16H200.598Z" fill="white"/>
<path d="M182.436 368.163C182.63 368.169 182.823 368.133 183.002 368.058C183.14 368.003 183.263 367.915 183.359 367.801C183.456 367.688 183.524 367.553 183.557 367.408C183.584 367.319 183.587 367.225 183.567 367.135C183.547 367.045 183.504 366.962 183.442 366.893C182.74 366.043 179.061 366.295 178.642 366.327C178.603 366.328 178.566 366.342 178.535 366.366C178.505 366.391 178.484 366.425 178.474 366.463C178.466 366.501 178.47 366.54 178.485 366.576C178.5 366.612 178.526 366.642 178.558 366.662C179.729 367.435 181.051 367.947 182.436 368.163ZM180.214 366.631C181.503 366.631 182.855 366.757 183.159 367.124C183.177 367.153 183.186 367.185 183.186 367.219C183.186 367.252 183.177 367.285 183.159 367.313C183.141 367.404 183.102 367.489 183.043 367.56C182.984 367.632 182.909 367.687 182.824 367.722C182.237 367.964 180.916 367.565 179.25 366.673L180.214 366.631Z" fill="white"/>
<path d="M178.653 366.694C179.701 366.694 182.059 365.886 182.237 365.046C182.237 364.836 182.237 364.542 181.734 364.301C179.931 363.451 178.537 366.306 178.474 366.4C178.462 366.43 178.455 366.462 178.455 366.494C178.455 366.527 178.462 366.559 178.474 366.589C178.492 366.621 178.517 366.648 178.549 366.666C178.58 366.685 178.616 366.694 178.653 366.694ZM181.073 364.521C181.251 364.519 181.427 364.559 181.587 364.637C181.807 364.742 181.912 364.857 181.891 364.962C181.786 365.455 180.088 366.148 178.977 366.295C179.313 365.728 180.12 364.521 181.073 364.521Z" fill="white"/>
<path d="M183.044 168.318L190.736 166.964L186.764 175.938C186.764 175.938 179.711 175.938 180.026 172.243L183.044 168.318Z" fill="#E4897B"/>
<path d="M196.552 171.477L192.916 178.719L186.806 175.938L190.778 166.964L196.552 171.477Z" fill="#E4897B"/>
<path d="M174.565 350.175L186.167 361.111L189.908 357.091L176.63 344.98L174.565 350.175Z" fill="#407BFF"/>
<path opacity="0.6" d="M174.565 350.175L186.167 361.111L189.908 357.091L176.63 344.98L174.565 350.175Z" fill="white"/>
<path d="M187.435 361.163H202.809L203.658 355.748L186.691 356.598L187.435 361.163Z" fill="#407BFF"/>
<path opacity="0.6" d="M187.435 361.163H202.809L203.658 355.748L186.691 356.598L187.435 361.163Z" fill="white"/>
<path d="M179.491 106.566C172.155 107.615 164.641 133.139 164.641 133.139L180.361 141.871C180.361 141.871 186.743 129.739 189.793 120.734C192.989 111.299 187.341 105.411 179.491 106.566Z" fill="#407BFF"/>
<path opacity="0.7" d="M179.491 106.566C172.155 107.615 164.641 133.139 164.641 133.139L180.361 141.871C180.361 141.871 186.743 129.739 189.793 120.734C192.989 111.299 187.341 105.411 179.491 106.566Z" fill="white"/>
<path opacity="0.2" d="M205.869 109.515L209.013 112.863L207.473 116.095L204.968 116.211L202.83 113.125L205.869 109.515Z" fill="black"/>
<path d="M207.2 115.518C207.2 115.518 213.163 140.255 213.394 145.397C213.719 152.471 210.763 164.55 210.763 164.55C210.763 164.55 206.571 154.507 205.712 145.177C204.853 135.847 205.492 120.755 205.104 115.518H207.2Z" fill="#407BFF"/>
<path opacity="0.2" d="M207.2 115.518C207.2 115.518 213.163 140.255 213.394 145.397C213.719 152.471 210.763 164.55 210.763 164.55C210.763 164.55 206.571 154.507 205.712 145.177C204.853 135.847 205.492 120.755 205.104 115.518H207.2Z" fill="black"/>
<path d="M205.869 109.515C204.675 111.451 203.983 113.655 203.857 115.927C203.857 115.927 190.778 111.31 191.396 104.54C191.396 104.54 193.251 103.438 194.425 102.546C194.425 102.546 194.865 106.807 205.869 109.515Z" fill="#407BFF"/>
<path opacity="0.6" d="M205.869 109.515C204.675 111.451 203.983 113.655 203.857 115.927C203.857 115.927 190.778 111.31 191.396 104.54C191.396 104.54 193.251 103.438 194.425 102.546C194.425 102.546 194.865 106.807 205.869 109.515Z" fill="white"/>
<path d="M205.869 109.515C207.071 111.348 207.937 113.381 208.426 115.518C208.426 115.518 214.348 111.509 212.566 104.824C211.481 104.386 210.363 104.035 209.223 103.774C209.223 103.774 209.998 108.098 205.869 109.515Z" fill="#407BFF"/>
<path opacity="0.6" d="M205.869 109.515C207.071 111.348 207.937 113.381 208.426 115.518C208.426 115.518 214.348 111.509 212.566 104.824C211.481 104.386 210.363 104.035 209.223 103.774C209.223 103.774 209.998 108.098 205.869 109.515Z" fill="white"/>
</svg>
