<svg width="210" height="248" viewBox="0 0 210 248" fill="none" xmlns="http://www.w3.org/2000/svg">
<g opacity="0.1">
<path d="M231.5 11.2877L136.566 -17.7333C133.844 -18.5656 130.951 -18.6668 128.177 -18.0267C125.403 -17.3865 122.846 -16.0277 120.764 -14.0865L48.1638 53.614C46.0822 55.5559 44.5482 58.0115 43.7162 60.734C42.8841 63.4565 42.7832 66.35 43.4236 69.1238L65.7516 165.851C66.3921 168.625 67.7516 171.182 69.6935 173.265C71.6354 175.347 74.0912 176.882 76.8141 177.714L171.744 206.736C174.466 207.568 177.36 207.669 180.134 207.029C182.908 206.389 185.464 205.03 187.547 203.089L260.149 135.386C262.231 133.444 263.765 130.988 264.597 128.266C265.429 125.544 265.53 122.65 264.889 119.876L242.563 23.1507C241.922 20.3764 240.563 17.8195 238.621 15.7371C236.679 13.6547 234.223 12.1202 231.5 11.2877Z" fill="#3F6DFD"/>
</g>
</svg>
