<svg width="353" height="437" viewBox="0 0 353 437" fill="none" xmlns="http://www.w3.org/2000/svg">
<g opacity="0.1">
<path d="M162.126 66.128L72.8105 38.8245C70.2492 38.0414 67.527 37.9462 64.9172 38.5485C62.3075 39.1507 59.9022 40.4292 57.9431 42.2554L-10.3603 105.949C-12.3188 107.776 -13.7619 110.087 -14.5447 112.648C-15.3275 115.209 -15.4225 117.932 -14.82 120.541L6.18662 211.544C6.78922 214.154 8.06827 216.56 9.89522 218.519C11.7222 220.478 14.0326 221.922 16.5944 222.705L105.906 250.009C108.467 250.792 111.19 250.887 113.799 250.285C116.409 249.683 118.814 248.404 120.774 246.578L189.079 182.882C191.038 181.055 192.481 178.745 193.264 176.183C194.046 173.622 194.141 170.9 193.539 168.29L172.534 77.289C171.931 74.6788 170.652 72.2732 168.825 70.3141C166.998 68.3549 164.688 66.9112 162.126 66.128Z" fill="#3F6DFD"/>
<path d="M266.464 241.621L200.425 220.992C198.545 220.397 196.541 220.311 194.617 220.743C192.693 221.174 190.918 222.108 189.472 223.448L139.405 270.137C137.967 271.485 136.911 273.191 136.346 275.081C135.781 276.97 135.727 278.975 136.189 280.893L152.162 348.211C152.623 350.145 153.578 351.927 154.934 353.381C156.291 354.835 158.001 355.913 159.899 356.507L225.939 377.137C227.819 377.732 229.823 377.818 231.747 377.386C233.672 376.954 235.447 376.02 236.893 374.679L286.96 327.991C288.398 326.642 289.454 324.936 290.019 323.047C290.584 321.158 290.638 319.152 290.176 317.235L274.202 249.918C273.741 247.984 272.785 246.202 271.429 244.747C270.073 243.293 268.362 242.216 266.464 241.621Z" fill="#3F6DFD"/>
<path d="M100.869 275.761L11.5533 248.457C8.99204 247.674 6.26977 247.579 3.66004 248.181C1.05031 248.784 -1.35496 250.062 -3.31412 251.888L-71.6175 315.582C-73.576 317.409 -75.0191 319.719 -75.8019 322.281C-76.5847 324.842 -76.6797 327.564 -76.0772 330.174L-55.0706 421.177C-54.468 423.787 -53.1889 426.193 -51.362 428.152C-49.535 430.111 -47.2246 431.555 -44.6628 432.338L44.649 459.642C47.2102 460.425 49.9325 460.52 52.5422 459.918C55.152 459.316 57.5572 458.037 59.5164 456.211L127.822 392.515C129.781 390.688 131.224 388.377 132.006 385.816C132.789 383.255 132.884 380.533 132.282 377.923L111.277 286.922C110.674 284.312 109.395 281.906 107.568 279.947C105.741 277.988 103.431 276.544 100.869 275.761Z" fill="#3F6DFD"/>
</g>
</svg>
