<svg width="15" height="16" viewBox="0 0 15 16" fill="none" xmlns="http://www.w3.org/2000/svg">
<path d="M13.6548 7.5587C13.7119 7.6158 13.7573 7.68362 13.7882 7.75827C13.8192 7.83291 13.8351 7.91292 13.8351 7.99373C13.8351 8.07453 13.8192 8.15455 13.7882 8.22919C13.7573 8.30384 13.7119 8.37165 13.6548 8.42876L7.34835 14.7313C6.54102 15.5386 5.44608 15.992 4.30441 15.9919C3.16273 15.9919 2.06785 15.5383 1.26062 14.7309C0.453386 13.9236 -7.20501e-05 12.8287 8.58677e-09 11.687C7.20672e-05 10.5453 0.453668 9.45043 1.261 8.6432L8.89017 0.901812C9.46655 0.324824 10.2485 0.000432857 11.0641 4.32877e-07C11.8796 -0.000431991 12.662 0.32313 13.2389 0.899507C13.8159 1.47588 14.1403 2.25786 14.1408 3.07341C14.1412 3.88896 13.8176 4.67128 13.2412 5.24827L5.61054 12.9897C5.264 13.3362 4.79399 13.5309 4.30391 13.5309C3.81383 13.5309 3.34382 13.3362 2.99728 12.9897C2.65074 12.6431 2.45606 12.1731 2.45606 11.683C2.45606 11.193 2.65074 10.7229 2.99728 10.3764L9.39976 3.87247C9.45584 3.81264 9.52333 3.76463 9.59825 3.73128C9.67316 3.69792 9.75399 3.67988 9.83599 3.67823C9.91798 3.67658 9.99947 3.69135 10.0757 3.72167C10.1519 3.75198 10.2212 3.79723 10.2797 3.85476C10.3381 3.91228 10.3845 3.98092 10.416 4.05662C10.4475 4.13233 10.4636 4.21358 10.4632 4.29558C10.4629 4.37759 10.4461 4.4587 10.414 4.53413C10.3818 4.60957 10.3349 4.67781 10.276 4.73484L3.87272 11.2457C3.81539 11.3026 3.76982 11.3702 3.73862 11.4447C3.70742 11.5192 3.6912 11.5991 3.69088 11.6798C3.69056 11.7606 3.70614 11.8406 3.73675 11.9153C3.76736 11.9901 3.81239 12.058 3.86926 12.1154C3.92614 12.1727 3.99375 12.2183 4.06824 12.2495C4.14273 12.2807 4.22263 12.2969 4.30339 12.2972C4.38414 12.2975 4.46417 12.282 4.5389 12.2513C4.61364 12.2207 4.68161 12.1757 4.73894 12.1188L12.3689 4.38129C12.7154 4.03546 12.9104 3.56614 12.9109 3.07656C12.9114 2.58698 12.7174 2.11726 12.3716 1.77072C12.0257 1.42418 11.5564 1.22921 11.0668 1.22871C10.5773 1.2282 10.1075 1.4222 9.761 1.76803L2.13337 9.50634C1.84762 9.79163 1.62087 10.1304 1.46605 10.5033C1.31123 10.8763 1.23138 11.276 1.23106 11.6798C1.23074 12.0836 1.30995 12.4835 1.46418 12.8567C1.6184 13.2298 1.84462 13.569 2.12991 13.8547C2.4152 14.1405 2.75398 14.3672 3.12691 14.522C3.49983 14.6769 3.8996 14.7567 4.30339 14.757C4.70717 14.7574 5.10706 14.6781 5.48024 14.5239C5.85341 14.3697 6.19255 14.1435 6.47829 13.8582L12.7855 7.55562C12.9012 7.4408 13.0577 7.37663 13.2207 7.37721C13.3838 7.37778 13.5399 7.44306 13.6548 7.5587Z" fill="#666666"/>
</svg>
