<svg width="14" height="12" viewBox="0 0 14 12" fill="none" xmlns="http://www.w3.org/2000/svg">
<path d="M8.98977 0.549617L8.98957 0.549416C8.98814 0.547979 8.98672 0.546575 8.98533 0.545205C8.98493 0.584864 8.98534 0.626363 8.98581 0.67399C8.98588 0.68069 8.98595 0.68751 8.98601 0.694464C8.98626 0.72016 8.98649 0.747566 8.98649 0.776204C9.43182 1.22282 9.87716 1.66914 10.3226 2.11554L10.3233 2.11622C10.7875 2.58145 11.2517 3.04675 11.716 3.5124C11.8422 3.63865 12.0293 3.85639 12.0508 4.18806L12.0508 4.18821C12.0752 4.56635 11.8794 4.82365 11.7212 4.98187L11.721 4.98213C11.4121 5.29054 11.1032 5.59929 10.7942 5.90814C10.1923 6.50977 9.58997 7.11178 8.98679 7.71242C8.98802 7.76868 8.98699 7.82122 8.98621 7.86106C8.98598 7.87274 8.98577 7.88333 8.98565 7.8926C8.98533 7.9166 8.98536 7.93648 8.9857 7.95321C8.99344 7.94556 9.00289 7.93632 9.01465 7.92498C10.2141 6.72554 11.4137 5.52598 12.6146 4.3264C12.6461 4.29489 12.6695 4.26961 12.6871 4.24883C12.6664 4.22429 12.6391 4.19481 12.6023 4.15807C11.799 3.35655 10.9961 2.55432 10.1933 1.75203C9.79213 1.35121 9.39099 0.950378 8.98977 0.549617ZM8.89485 0.685251C8.89401 0.684374 8.89391 0.684316 8.89476 0.685161L8.89485 0.685251Z" stroke="#0575E6"/>
<path d="M6.15448 1.34023C6.15776 1.22613 6.1558 1.10178 6.15399 0.986359C6.15346 0.952587 6.15294 0.91958 6.15256 0.887818C6.15119 0.770465 6.15142 0.65853 6.15698 0.550417C6.7041 1.09665 7.24987 1.64272 7.79586 2.18902C8.07039 2.46369 8.34497 2.73842 8.6198 3.01326C8.73515 3.12861 8.85082 3.24449 8.96674 3.36064C9.25776 3.65222 9.55042 3.94544 9.84395 4.23603L9.8442 4.23628C9.84913 4.24116 9.85333 4.24554 9.85687 4.24943C9.84907 4.25794 9.83941 4.26797 9.82716 4.28022L6.1555 7.95188C6.1555 7.9509 6.1555 7.94991 6.1555 7.9489V7.94642H6.15549C6.15277 7.39828 6.15277 6.84878 6.15549 6.30064L6.1555 6.29816L6.1555 6.29684C6.1555 6.27673 6.15551 6.22876 6.14832 6.17671C6.141 6.1237 6.12097 6.02189 6.04942 5.91968C5.87132 5.66525 5.59219 5.67478 5.49526 5.68482M6.15448 1.34023L5.65686 2.27908C5.65823 2.37321 5.63776 2.41141 5.53271 2.4196L5.57185 2.91806C5.57175 2.91807 5.57165 2.91808 5.57156 2.91808C4.86461 2.9736 4.18355 3.07816 3.52905 3.28062C2.73069 3.52807 2.04548 3.89368 1.51225 4.47928L1.51209 4.47946C1.10283 4.92847 0.846068 5.47123 0.692027 6.08953C0.432281 7.14142 0.424453 8.17184 0.740274 9.19266L0.740322 9.19282C0.841051 9.51877 0.953848 9.84007 1.07776 10.1573C1.08836 9.54494 1.15411 8.91571 1.35224 8.29275C1.70988 7.1669 2.49685 6.45673 3.55076 6.07856L3.55111 6.07843C4.19921 5.84644 4.86217 5.74885 5.49526 5.68482M6.15448 1.34023L6.1555 1.34047C6.1555 1.4484 6.15525 1.54958 6.15502 1.64611C6.15448 1.87109 6.15399 2.07082 6.15681 2.27183L6.15448 1.34023ZM5.49526 5.68482C5.49484 5.68486 5.49443 5.6849 5.49402 5.68495L5.54636 6.1822M5.49526 5.68482C5.49553 5.68479 5.4958 5.68476 5.49606 5.68474L5.54636 6.1822M1.63095 11.4061C1.6298 11.4041 1.62814 11.401 1.62603 11.3967C1.44359 11.027 1.27539 10.6524 1.12311 10.272L1.57639 10.275M1.63095 11.4061C1.63225 11.408 1.63287 11.409 1.63285 11.4091C1.63283 11.4092 1.63217 11.4082 1.63095 11.4061ZM1.63095 11.4061C1.62966 11.4042 1.62769 11.4015 1.62499 11.3982L1.39596 11.5112L1.39814 11.5193L1.64187 11.4973M1.64187 11.4973C1.60367 11.0908 1.57366 10.6829 1.57639 10.275M1.64187 11.4973L1.39838 11.5202M1.64187 11.4973C1.65688 11.6638 1.59821 11.7511 1.46998 11.7865M1.57639 10.275C1.58048 9.65422 1.63914 9.04031 1.82877 8.44413M1.57639 10.275L1.1231 10.2719L1.82877 8.44413M1.82877 8.44413C2.133 7.48642 2.79193 6.88206 3.71962 6.54918C4.31035 6.33772 4.92562 6.24496 5.54636 6.1822M1.82877 8.44413L5.54636 6.1822M0.262612 9.34044C-0.0839071 8.22039 -0.0716286 7.09625 0.206678 5.96938L0.262612 9.34044ZM0.262612 9.34044C0.505448 10.1262 0.815134 10.8834 1.17802 11.6187M0.262612 9.34044L1.39838 11.5202M1.39838 11.5202L1.46998 11.7865M1.39838 11.5202L1.39636 11.5204M1.46998 11.7865C1.3431 11.8206 1.25442 11.7729 1.17802 11.6187M1.46998 11.7865L1.39636 11.5204M1.17802 11.6187L1.37284 11.5226M1.17802 11.6187L1.37183 11.5227L1.14423 11.5441C1.14414 11.5466 1.1442 11.548 1.14423 11.548C1.14426 11.5481 1.14425 11.5462 1.14389 11.5422L1.14431 11.5422M1.37284 11.5226L1.39585 11.5108M1.37284 11.5226L1.37537 11.5214M1.37284 11.5226L1.39636 11.5204M1.14431 11.5422C1.14513 11.5269 1.15066 11.4831 1.18323 11.4299C1.23827 11.3401 1.31571 11.3104 1.33668 11.3046L1.39396 11.5117M1.14431 11.5422L1.37436 11.5214M1.14431 11.5422L1.37436 11.5214M1.39396 11.5117L1.39585 11.5108M1.39396 11.5117L1.39407 11.5121M1.39396 11.5117L1.37436 11.5214M1.39585 11.5108L1.34018 11.3037C1.35006 11.301 1.37848 11.2947 1.41966 11.2978C1.46371 11.3012 1.50972 11.3145 1.55146 11.3382C1.59005 11.36 1.6132 11.3838 1.62446 11.3975L1.39585 11.5108ZM1.39407 11.5121L1.37537 11.5214M1.39407 11.5121L1.39611 11.5195M1.39407 11.5121L1.39611 11.5195M1.37436 11.5214L1.37537 11.5214M1.37537 11.5214L1.39611 11.5195M1.39611 11.5195L1.39636 11.5204M6.12138 0.500786L6.08184 0.436444L6.08142 0.435758L5.86696 0.0867264C5.74963 0.159032 5.67869 0.259986 5.66641 0.39914L6.12138 0.500786ZM6.16447 0.443157C6.16447 0.443133 6.16447 0.443109 6.16448 0.443086L6.16447 0.443157Z" stroke="#0575E6"/>
</svg>
