<svg width="15" height="18" viewBox="0 0 15 18" fill="none" xmlns="http://www.w3.org/2000/svg">
<path d="M15 8.98981C15.0005 9.21892 14.944 9.44403 14.8361 9.64184C14.7282 9.83966 14.573 10.003 14.3864 10.115L1.7911 17.8312C1.61013 17.9412 1.40578 17.9993 1.19775 18C1.00591 17.9996 0.816949 17.9499 0.646719 17.8551C0.47649 17.7603 0.32995 17.6232 0.219382 17.4552C0.108813 17.2872 0.0374393 17.0933 0.0112424 16.8897C-0.0149545 16.6861 0.00478928 16.4787 0.0688184 16.2849L2.1204 9.85941C2.14062 9.79584 2.17891 9.74064 2.2299 9.70158C2.28089 9.66252 2.34201 9.64155 2.4047 9.64161H7.79882C7.88109 9.6418 7.96251 9.62387 8.03804 9.58893C8.11357 9.55399 8.18158 9.50278 8.23786 9.43849C8.29413 9.3742 8.33747 9.2982 8.36518 9.21521C8.39289 9.13222 8.40437 9.04401 8.39892 8.95606C8.38532 8.79073 8.31392 8.63701 8.19902 8.52568C8.08413 8.41435 7.93422 8.35364 7.77932 8.3557H2.40995C2.34736 8.35582 2.2863 8.33497 2.23532 8.29605C2.18434 8.25714 2.14599 8.20213 2.12565 8.1387L0.0673181 1.70917C-0.012838 1.4628 -0.0211488 1.19613 0.0434897 0.944583C0.108128 0.693032 0.242657 0.468499 0.429213 0.3008C0.615768 0.133101 0.845523 0.0301716 1.08797 0.00567927C1.33041 -0.018813 1.57407 0.0362909 1.7866 0.163674L14.3886 7.87027C14.574 7.98209 14.7283 8.14469 14.8357 8.34141C14.9431 8.53813 14.9998 8.7619 15 8.98981Z" fill="white"/>
</svg>
